<svg xmlns="http://www.w3.org/2000/svg" viewBox="0 0 2686.51 3229.1"><g id="Calque_2" data-name="Calque 2"><g id="Layer_1" data-name="Layer 1"><path d="M2073.41,2266.93l53.05-29.55a67.35,67.35,0,0,0,34.48-62.63l-9.78-173.47s-194.37,134.45-183,132.83" style="fill:#fff"/><path d="M2073.43,2286.37A19.44,19.44,0,0,1,2064,2250l53-29.55a48.18,48.18,0,0,0,24.53-44.56l-9.78-173.46a19.44,19.44,0,0,1,38.82-2.19l9.78,173.46a87.34,87.34,0,0,1-44.43,80.72l-53.05,29.54A19.31,19.31,0,0,1,2073.43,2286.37Z" style="fill:#ad45c6"/><path d="M934.79,1542.88l-14.88-216a71.75,71.75,0,0,1,57.18-75.23c200.27-41.07,836.69-78.41,1053.32-57.95a76.16,76.16,0,0,1,68.66,68.07c4.93,48.26,11.54,121,14.84,192.46,5.67,122.7,37.25,375.39,37.25,375.39l25.33,129.12A96.24,96.24,0,0,1,2110.94,2069l-47.25,14.86L989.76,1628.73" style="fill:#3a2b58"/><path d="M1112.05,2388.42h-71a84.75,84.75,0,0,1-84.75-84.75V2184.62l95.6-100.73,44.12,113.51" style="fill:#fff"/><path d="M1112.05,2407.86h-71A104.3,104.3,0,0,1,936.9,2303.67V2184.62a19.44,19.44,0,0,1,38.87,0v119.05a65.38,65.38,0,0,0,65.31,65.31h71a19.44,19.44,0,0,1,0,38.88Z" style="fill:#ad45c6"/><path d="M2063.69,2103.33a19.49,19.49,0,0,1-7.58-1.54L982.17,1646.62a19.44,19.44,0,0,1,15.17-35.79L2064.69,2063.2l40.41-12.71a76.73,76.73,0,0,0,52.32-88l-25.33-129.12c-.09-.44-.16-.88-.21-1.33-.32-2.53-31.75-254.85-37.39-376.9-3.28-71-9.84-143.25-14.76-191.38a56.9,56.9,0,0,0-51.14-50.7c-206-19.47-842.37,15.56-1047.6,57.64a52.5,52.5,0,0,0-41.69,54.85l14.89,216a19.44,19.44,0,1,1-38.78,2.67l-14.89-216a91.49,91.49,0,0,1,72.66-95.61c212.4-43.56,845.86-78.41,1059.06-58.26a95.85,95.85,0,0,1,86.16,85.45c5,48.62,11.61,121.67,14.93,193.54,5.42,117.47,35.24,358.7,37,373.21L2195.56,1955a115.55,115.55,0,0,1-78.79,132.61l-47.24,14.87A19.75,19.75,0,0,1,2063.69,2103.33Z" style="fill:#ad45c6"/><path d="M2634.68,1342.47s65.6,92.72-14.58,187.48-128.78,82.61-128.78,82.61c-22.25,242.63-107.73,384-355.56,264.94,0,0-.05,0-.1-.1-6.22-3-12.53-6.12-18.95-9.43-7.82-4-15.74-8.31-23.86-12.83,0,0,21,281.85,1.6,443.82s103.7,745.09,103.7,745.09,19.44,84.27-8.11,116.63c-8.6,10.11-19.24,19-29.79,26.34a143.26,143.26,0,0,1-82.12,25.51H1748.71a46.37,46.37,0,0,1-45.49-36.74c-7.39-35.37-11-89.51,20.26-131a117.1,117.1,0,0,1,19.49-20.21s.15-4,0-11.13c-.24-35.57-5.15-149.19-55.11-230.19-51.51-83.54-103-256.78-116.48-303.82l-.19-.63v0c-2.09-7.29-3.21-11.37-3.21-11.37-.14,8.7-.29,17.45-.39,26.29-2.77,188.11,1.56,405.43,9.62,638.29a77.8,77.8,0,0,1-77.75,80.52H1068.24a50.8,50.8,0,0,1-49.62-40.38c-8.6-40.29-11-102.29,37.13-145.78,20.26-18.37,49.57-33.44,91.11-42.23,0,0-64.77-332.87-89.07-595.28S1013.13,1955,1013.13,1955L758.94,1814s99.61-431,374.17-525.79S1910.62,1242,1910.62,1242s138.64,30,294.87,216.24l101.18-192.77c35.13-80.86,78.33-103.26,107.49-65.12,9.28,12.15,14,27.17,14.72,42.43l3.31,73.71,119.88-71.24c24.3-11.9,47.77-18.22,69.83-14.87a52.4,52.4,0,0,1,6.85,1.51c27.6,7.92,43.64,36.93,36.74,65.75C2661.41,1314.92,2651.3,1329.94,2634.68,1342.47Z" style="fill:#371a45"/><g style="opacity:0.25"><path d="M1234.35,1370.85c345.07,148.54,629,164,796.14-74.48l-62.84-35.59C1734.78,1406.21,1491.71,1455.64,1234.35,1370.85Z" style="fill:#371a45"/></g><path d="M1471,2131.59q-87.23,0-175.94-8.79a79.5,79.5,0,0,1-70.35-65.17c-3.51-19.82-6.73-40.2-9.58-60.52-13.73-96.75-18.81-189.69-15.53-284.1a80,80,0,0,1,65.28-75.6c84.81-15.5,306.53-48.3,532.56-18.12a80.51,80.51,0,0,1,48.47,25.21c.31.33.6.67.88,1a79.69,79.69,0,0,1,18.57,37.58c11.7,59.63,30.08,182.73,21.71,336.92v0a80.4,80.4,0,0,1-62.8,73.84C1710,2119,1591.67,2131.59,1471,2131.59Zm130.73-485.78c-146.12,0-271.31,19.14-329.88,29.85a40.93,40.93,0,0,0-33.4,38.69c-3.2,92.12,1.77,182.83,15.17,277.33,2.79,19.9,5.94,39.81,9.38,59.22a40.52,40.52,0,0,0,35.88,33.22c177.68,17.61,351.64,8.13,517-28.22a41.38,41.38,0,0,0,32.33-38c8.14-150-9.69-269.45-21-327.32a40.86,40.86,0,0,0-9.94-19.74c-.2-.21-.4-.44-.59-.67a41.61,41.61,0,0,0-24.4-12.33C1727.35,1649.15,1662.7,1645.81,1601.73,1645.81ZM1867.66,2019h0Z" style="fill:#ad45c6"/><path d="M2078.12,3229.1H1748.69a66,66,0,0,1-64.49-52.2c-14.37-69-.38-126.76,39.41-164-.13-31.18-4.1-144.18-52.26-222.28-31.35-50.84-62.23-132.4-85.09-200.6-.3,150.6,3.16,328.16,10.43,538.44a97.24,97.24,0,0,1-97.16,100.65H1068.22c-32.87,0-61.72-23.46-68.6-55.78-7.82-36.74-10.9-90.16,18.86-136,21.74-33.44,57.29-57.14,105.85-70.61-13.8-73.35-65-353.57-85.9-579-20.74-224.05-38.82-383.37-43.47-423.49L749.51,1828.13a19.43,19.43,0,0,1-9.51-21.37c1-4.49,26.1-111.36,85.65-231.62C905.45,1414,1009.58,1307.4,1126.77,1267c275.4-95,765-49.14,785.72-47.14a21.28,21.28,0,0,1,2.24.35c5.69,1.23,136,31,286.84,200.93l87.56-166.85c25.08-57.49,55.3-90,87.44-93.87,19.84-2.44,38.7,6.57,53,25.33,11.34,14.85,17.8,33.3,18.7,53.36l1.86,41.32,92-54.69c.45-.27.92-.52,1.4-.75,30.35-14.85,56.92-20.3,81.27-16.63a71.18,71.18,0,0,1,48.91,30.9,76.14,76.14,0,0,1,10.7,60.12,93.39,93.39,0,0,1-24.73,44.14c22.21,42.66,38,122.08-24.74,196.17-56.88,67.22-101,85-126,89-16.76,157.75-59.28,249.7-133.23,288.68-65.33,34.44-151,24.19-261.19-31.47,5,81,14.78,282.75-.8,412.58-18.84,157,102.16,733,103.39,738.78,2.13,9.24,20.6,94.51-12.31,133.23-8.74,10.29-20,20.27-33.48,29.68A161.86,161.86,0,0,1,2078.12,3229.1Zm-510.07-784a19.44,19.44,0,0,1,18.73,14.3c.59,2.16,59.89,217.12,117.66,310.8,62.29,101,58.16,246.08,58,252.21a19.42,19.42,0,0,1-7.14,14.4c-42.76,34.91-41.55,91.14-33,132.16a27,27,0,0,0,26.44,21.24h329.43a123.18,123.18,0,0,0,71-22c10.74-7.51,19.53-15.24,26.12-23,14.57-17.13,11.09-68.61,4-99.68-5.13-24.28-123.63-588.5-104-751.79,19-158.22-1.49-437.26-1.7-440.06a19.44,19.44,0,0,1,28.86-18.42c111.4,62.17,197.29,78.19,255.3,47.62,63-33.2,100.39-123.15,114.34-275,.55-6,3-11.57,8-14.81s10.16-4.18,15.66-2.41c4.42.33,44.41.92,109.64-76.17,69.11-81.67,15.81-160.47,13.51-163.78a19.5,19.5,0,0,1,4.21-26.68c12.77-9.63,20.49-20.67,23.6-33.75a37.16,37.16,0,0,0-5.09-29.36,32.75,32.75,0,0,0-22.48-14.21c-16.09-2.43-35,1.75-57.7,12.77l-119.17,70.86a19.45,19.45,0,0,1-29.36-15.84l-3.31-73.74c-.54-12.1-4.26-23-10.75-31.5-8.72-11.4-15.3-10.62-17.44-10.35-12.56,1.54-35,21.17-56.78,71.44-.19.44-.4.87-.62,1.29l-101.16,192.76a19.44,19.44,0,0,1-32.1,3.46c-142.63-170.05-270.84-206.35-283.2-209.51-28.92-2.65-507.44-44.61-768,45.31-233.73,80.67-338,423.69-358,497.72l241,133.72a19.42,19.42,0,0,1,9.87,14.7c.21,1.71,20.69,174.7,44.74,434.36,23.93,258.45,88.16,590,88.81,593.36a19.44,19.44,0,0,1-15.06,22.73c-47.66,10.07-81.24,29.68-99.82,58.26-22.5,34.63-19.73,77.13-13.43,106.68a31.13,31.13,0,0,0,30.57,25h431.31a58.36,58.36,0,0,0,58.31-60.43c-9.43-272.33-12.45-490.05-9.24-665.59a19.45,19.45,0,0,1,17-18.94A19.81,19.81,0,0,1,1568.05,2445.11Z" style="fill:#ad45c6"/><path d="M2437.77,1295.05c30.89,14.87,54.78,45.48,60.37,79.13,2.09,10.24,1.82,20.76,1.28,31-1.49-4.91-2.59-9.8-4.37-14.45-7.94-22-24.12-41.22-45.12-51.17-7.36-3.4-15.45-6.67-23.29-7.27-24.38-8.1-13.73-43.85,11.13-37.25Z" style="fill:#ad45c6"/><path d="M2487.87,1628.82c-40.46-14.94-75.23-44.51-98.59-80.33,29.75,23.81,66.29,39.81,104.34,42.13a3.92,3.92,0,0,0,1.16-.06l-6.91,38.26Z" style="fill:#ad45c6"/><path d="M2411.11,1761.26c-105.39,0-172.05-39.37-211.1-75.67-50.57-47-66.77-98.64-67.44-100.82a19.45,19.45,0,0,1,.8-13.5l54.34-123.68a19.44,19.44,0,0,1,35.6,15.64l-51.24,116.6c12.63,32,79.44,167.35,296,138.64a19.44,19.44,0,0,1,5.11,38.54A472.69,472.69,0,0,1,2411.11,1761.26Z" style="fill:#ad45c6"/><path d="M2113.9,1685.42a19.21,19.21,0,0,1-7.65-1.58,19.43,19.43,0,0,1-10.21-25.52l37.26-86.89a19.44,19.44,0,0,1,35.73,15.32l-37.26,86.89A19.43,19.43,0,0,1,2113.9,1685.42Z" style="fill:#ad45c6"/><path d="M847.57,547.41l-77.76,35.47A121.38,121.38,0,0,0,699,700.23l13.17,231a121.39,121.39,0,0,0,101.74,112.91l102.36,16.62" style="fill:#fff"/><path d="M2121.29,474.78l81.28,26.4a121.4,121.4,0,0,1,83.69,108.55l13.18,231a121.4,121.4,0,0,1-88.25,123.74l-99.81,28.15" style="fill:#fff"/><g style="opacity:0.25"><path d="M916.27,1060.79l-102.39-16.6A121.46,121.46,0,0,1,712.17,931.26l-7.48-131.14A121.46,121.46,0,0,0,806.4,913.05l92.13,15Z" style="fill:#371a45"/></g><g style="opacity:0.25"><path d="M2291.93,709.62l7.47,131.14a121.38,121.38,0,0,1-88.21,123.75l-99.84,28.13,2.59-134,89.77-25.27A121.38,121.38,0,0,0,2291.93,709.62Z" style="fill:#371a45"/></g><circle cx="1492.71" cy="719.79" r="700.33" style="fill:#371a45"/><g style="opacity:0.25"><path d="M1532.59,1419a697.3,697.3,0,0,1-433.88-120.19,697.38,697.38,0,0,0,231.69,25.49c386.11-22,681.33-352.9,659.32-739.06-12.93-226-131.61-420.86-305.28-539.18,278.89,79.29,490.06,328,507.47,633.88C2213.92,1066.08,1918.75,1397,1532.59,1419Z" style="fill:#371a45"/></g><path d="M2193.22,702.86c17.52,307.34-281.28,574.37-667.47,596.39C1173.67,1319.32,870.53,1128.82,806.58,862a445.29,445.29,0,0,1-11.75-79.44C777.3,475.26,1076.11,208.3,1462.29,186.28c290.18-16.54,547.07,110,664.31,304.21v.08C2165.4,554.85,2188.86,626.54,2193.22,702.86Z" style="fill:#ad45c6"/><g style="opacity:0.7000000000000001"><path d="M2193.22,702.86c17.52,307.34-281.28,574.37-667.47,596.39C1173.67,1319.32,870.53,1128.82,806.58,862c4.76-6.89,7.54-10.66,7.54-10.66,356,514,1327,231.83,1312.49-360.8C2165.4,554.85,2188.86,626.54,2193.22,702.86Z" style="fill:#82368c"/></g><path d="M1491.78,1439.59c-176.8,0-345.22-64-478.22-182.7-143.47-128-228.5-304.18-239.44-496.12S827.63,384.1,955.61,240.64,1259.8,12.14,1451.74,1.19s376.66,53.52,520.13,181.5,228.5,304.18,239.44,496.13-53.51,376.66-181.49,520.12-304.19,228.51-496.13,239.45Q1512.68,1439.59,1491.78,1439.59ZM1493.6,38.87q-19.75,0-39.64,1.13c-181.59,10.36-348.27,90.8-469.34,226.52s-182,310.45-171.69,492,90.79,348.26,226.51,469.33,310.47,182.07,492,171.7,348.26-90.8,469.34-226.51,182-310.46,171.69-492h0C2162.15,499.45,2081.71,332.78,1946,211.7,1820.18,99.46,1660.84,38.87,1493.6,38.87Z" style="fill:#ad45c6"/><path d="M792.86,765.32a17,17,0,0,1-17-16c-9.29-162.89,56.86-320.13,186.26-442.74,128.6-121.88,304.5-195,495.26-205.86s373.83,41.76,515.46,148.23C2115.36,356,2199,504.72,2208.24,667.6a17,17,0,1,1-34,1.94c-8.71-152.72-87.5-292.45-221.85-393.44-135.22-101.65-310.38-151.9-493.08-141.46s-351,80.23-473.81,196.59c-122,115.61-184.4,263.39-175.69,416.11a17,17,0,0,1-16,17.95C793.51,765.31,793.19,765.32,792.86,765.32Z" style="fill:#ad45c6"/><path d="M916.3,1080.23a19.82,19.82,0,0,1-3.14-.25l-102.37-16.62a140,140,0,0,1-118-131l-13.17-231a140,140,0,0,1,82.14-136.15l77.76-35.47a19.44,19.44,0,0,1,16.13,35.37l-77.75,35.47a101.33,101.33,0,0,0-59.48,98.56l13.18,231A101.32,101.32,0,0,0,817,1025l102.37,16.63a19.44,19.44,0,0,1-3.09,38.62Z" style="fill:#ad45c6"/><path d="M2111.37,1012.09a19.44,19.44,0,0,1-5.27-38.15l99.81-28.15A101.33,101.33,0,0,0,2280,841.86l-13.17-231a101.33,101.33,0,0,0-70.3-91.16l-81.28-26.4a19.44,19.44,0,1,1,12-37l81.28,26.4a139.94,139.94,0,0,1,97.09,125.92l13.17,231a140,140,0,0,1-102.37,143.56l-99.81,28.15A19.39,19.39,0,0,1,2111.37,1012.09Z" style="fill:#ad45c6"/><g style="opacity:0.5"><path d="M1933.27,1004c69.24-293.49-46.93-518.49-322.76-684.53C2086.32,421.41,2193.51,796.06,1933.27,1004Z" style="fill:#fff"/></g><g style="opacity:0.5"><path d="M1047.36,771.32A545.8,545.8,0,0,0,1079,929.18a63.92,63.92,0,0,1-35.12,80.55h0a64,64,0,0,1-77.66-22.32C922.63,924.52,893.1,847.93,900,768c3.92-45.17,48.16-75.61,92.06-64.26h0A73.66,73.66,0,0,1,1047.36,771.32Z" style="fill:#fff"/></g><g style="opacity:0.5"><path d="M1099.29,460h0a55.07,55.07,0,0,1,6.79,64.8l-31.92,54.66A55.08,55.08,0,0,1,1006.5,603l-4.08-1.6c-31.22-12.24-44.54-49.4-27.8-78.46a508,508,0,0,1,40.52-59.83A55.12,55.12,0,0,1,1099.29,460Z" style="fill:#fff"/></g><path d="M443.12,2136.94c-164-8.46-148.23-93.75-148.23-93.75,9.2,1.28,252.66,36.65,252.66,36.65" style="fill:#371a45"/><path d="M594.74,2169.74l328.43,27.52a41,41,0,0,0,33.16-12.64l307.74-324.25a39.21,39.21,0,0,0,10.78-27v-22.31a39.23,39.23,0,0,0-32.88-38.71L633.4,1672.46Z" style="fill:#371a45"/><path d="M926.67,2216.84c-1.7,0-3.41-.07-5.12-.21l-328.43-27.52a19.44,19.44,0,0,1-17.76-20.87L614,1671a19.44,19.44,0,0,1,22.53-17.67l608.57,99.89a58.46,58.46,0,0,1,49.16,57.89v22.31a58.43,58.43,0,0,1-16.11,40.38L970.43,2198A60.09,60.09,0,0,1,926.67,2216.84Zm-311-64.85,309.17,25.9a21.37,21.37,0,0,0,17.44-6.65L1250,1847a19.68,19.68,0,0,0,5.44-13.62v-22.31a19.72,19.72,0,0,0-16.59-19.52l-587.68-96.47Z" style="fill:#ad45c6"/><path d="M903,2128.15l-615.3-86a150.85,150.85,0,0,1-103.61-63.51c-8.11-11.76-15.94-24-23.52-36.64C57.28,1770.3,2.08,1527.28,24.53,1393.5a49.91,49.91,0,0,1,59.53-40.39l686.05,144a92.13,92.13,0,0,1,70.22,67.06q5.91,22.81,11.57,45.48c41.3,163.86,75.37,321.75,97.77,471.32A41.43,41.43,0,0,1,903,2128.15Z" style="fill:#371a45"/><path d="M69.92,1440.49C46.1,1582,109.37,1845.86,224.4,2018.18a147.72,147.72,0,0,1-40.29-39.51C65.83,1806.6.43,1537.09,24.53,1393.5a49.91,49.91,0,0,1,59.53-40.39l686.05,144a91.92,91.92,0,0,1,65.65,53.79,88.39,88.39,0,0,0-20.31-6.8l-686-144A49.85,49.85,0,0,0,69.92,1440.49Z" style="fill:#371a45"/><path d="M908.92,2148a61.12,61.12,0,0,1-8.61-.61h0L285,2061.44c-47.54-6.64-90.18-32.81-117-71.78-114.74-167-189.25-441.44-162.7-599.37a68.44,68.44,0,0,1,29.21-45.59,68.91,68.91,0,0,1,53.47-10.61l686,144a110.81,110.81,0,0,1,85,81.24c51.44,199.36,87.34,369,109.73,518.78a60.86,60.86,0,0,1-60,69.9Zm-3.23-39.11a22,22,0,0,0,24.74-25C908.23,1935.46,872.6,1767.06,821.5,1569a72.15,72.15,0,0,0-55.39-52.91l-686-144a30.42,30.42,0,0,0-23.57,4.67,30,30,0,0,0-12.78,19.93c-21.94,130.47,36.9,397,156.4,570.9,20.62,30,53.53,50.16,90.3,55.3Z" style="fill:#ad45c6"/><path d="M906.86,2147.92a19.44,19.44,0,0,1-18.9-15L772.2,1645.61a96.69,96.69,0,0,0-73-71.75l-680.6-149a19.44,19.44,0,1,1,8.31-38l680.6,149A135.83,135.83,0,0,1,810,1636.63L925.78,2124a19.45,19.45,0,0,1-18.92,23.94Z" style="fill:#ad45c6"/><path d="M443.14,2156.38q-.51,0-1,0c-72.38-3.73-122.34-22.43-148.5-55.59-23-29.11-18.43-57.93-17.84-61.12a19.43,19.43,0,0,1,38.27,6.78c-.14,1.11-1.84,15.75,10.79,31.13,13.24,16.11,44.67,36.13,119.28,40a19.44,19.44,0,0,1-1,38.85Z" style="fill:#ad45c6"/><path d="M950.12,2091.18a17,17,0,0,1-12.23-28.83l291.85-301.82a17,17,0,0,1,24.46,23.65L962.35,2086A17,17,0,0,1,950.12,2091.18Z" style="fill:#ad45c6"/><g style="opacity:0.25"><polyline points="950.12 2074.18 1241.97 1772.35 1264.68 1784.76 1274.85 1850.64 956.33 2194.54 940.35 2177.84 929.48 2128.56 950.12 2101.71" style="fill:#371a45"/></g><path d="M934.77,2210.24a19.44,19.44,0,0,1-19.13-16.17L905,2131.82a19.44,19.44,0,1,1,38.32-6.55L954,2187.53a19.45,19.45,0,0,1-19.19,22.71Z" style="fill:#ad45c6"/><path d="M964.24,1869.67a15,15,0,0,1-2.3-.18l-57.37-9.18a14.57,14.57,0,0,1-11.94-11.26l-17.32-78.75A14.57,14.57,0,0,1,892,1752.81l123.57,21.38a14.59,14.59,0,0,1,9.26,23L976,1863.73A14.58,14.58,0,0,1,964.24,1869.67ZM919,1833.09l38.78,6.2,29.66-40.38-79-13.67Z" style="fill:#ad45c6"/><path d="M950.11,2020.72a14.57,14.57,0,0,1-11.48-23.55l59.14-75.73L916,1912.62a14.58,14.58,0,0,1,3.13-29L1027,1895.27a14.57,14.57,0,0,1,9.93,23.46l-75.27,96.38A14.55,14.55,0,0,1,950.11,2020.72Z" style="fill:#ad45c6"/><g style="opacity:0.25"><path d="M903,2128.15l-615.3-86a150.85,150.85,0,0,1-103.61-63.51c-8.11-11.76-15.94-24-23.52-36.64,601.89,111.23,630.51-300.9,630.51-300.9l60.8-31.49c41.3,163.86,75.37,321.75,97.77,471.32A41.43,41.43,0,0,1,903,2128.15Z" style="fill:#371a45"/></g><path d="M666.61,2207.4c166.94-47.35,32.8-174.94-49.81-195.59C483.37,1971.29,423.16,2066,449,2143.6c6.46,19.41,20.2,35.62,37.85,46C538.55,2219.86,599.22,2223.58,666.61,2207.4Z" style="fill:#371a45"/><g style="opacity:0.25"><path d="M666.61,2207.4c-67.4,16.19-128.05,12.44-179.75-17.83-17.69-10.35-31.45-26.58-37.86-46a113.21,113.21,0,0,1-5.73-30.86c50.92,28.43,110.31,31.59,176.15,15.8,58.51-16.58,80-43.06,79.74-71.29C754,2104.87,781,2175,666.61,2207.4Z" style="fill:#371a45"/></g><path d="M592.74,2236.2c-43,0-81.77-10-115.73-29.87a104,104,0,0,1-46.48-56.6c-15.36-46.17-4.8-95.5,27.56-128.72,21.78-22.37,72-55.69,163.9-27.93,58.13,14.76,142.78,77.34,143.81,142.4.45,29.06-15.47,68.38-93.89,90.62-.25.08-.51.14-.77.21Q629.91,2236.2,592.74,2236.2Zm73.87-28.8h0ZM556.53,2021.53c-29.18,0-53.41,9-70.59,26.6-22.18,22.77-29.27,57-18.52,89.33a65.13,65.13,0,0,0,29.24,35.33c45.06,26.4,99,31.57,165,15.81,30.09-8.59,65.67-24.65,65.24-52.51-.63-39.67-65.23-93-114.85-105.42l-.93-.26C591.58,2024.47,573.24,2021.53,556.53,2021.53Z" style="fill:#ad45c6"/><path d="M1151.63,2962.42l53.16,33.43-62.66,4.27a20.44,20.44,0,0,1-21.78-19c-1.63-16.26,17.9-27.69,31.28-18.7Z" style="fill:#ad45c6"/><path d="M1728.84,3008.42c38.49-31.7,90.76-41.2,139-41.55,25.43.42,51.65,4,76.43,9.2l29.48,7.63c-17.87-1.93-42.62-3.85-60.25-3.41-5.49.31-17.13.61-22.38,1-4.57.51-17.34,2-22.1,2.55-33,5.52-66,15.69-93.15,34.87-6.78,4.77-13.7,10.24-18.8,16.4-18,18.18-45.43-7.57-28.27-26.69Z" style="fill:#ad45c6"/><path d="M1844.75,2862.18c-45.51,0-91.2-4.43-134.33-10.23a19.44,19.44,0,0,1,5.18-38.53c219.49,29.49,339.51-7.26,401.26-122.92a19.44,19.44,0,1,1,34.29,18.31C2086.15,2830.55,1966.21,2862.18,1844.75,2862.18Z" style="fill:#ad45c6"/><path d="M1344.27,2860.31c-124,0-230.77-43.39-238-46.37a19.44,19.44,0,0,1,14.91-35.91h0c2.66,1.1,268.63,108.9,434.8-22.09a19.44,19.44,0,0,1,24.07,30.53C1508.59,2842.83,1423,2860.31,1344.27,2860.31Z" style="fill:#ad45c6"/><path d="M1253.05,2324.73c237.08,55.5,354.14,55.82,591.09,0a2,2,0,0,1,2.78,1.37,1.88,1.88,0,0,1-1,2.1l-34.73,17.07c-157.43,73.5-328.06,80.21-489.6,15.34-21.23-8.57-49.72-21.95-70.28-32.41a1.89,1.89,0,0,1-.87-2.55,2.07,2.07,0,0,1,2.63-.91Z" style="fill:#ad45c6"/><path d="M1567.92,2489.25a19.44,19.44,0,0,1-19.27-17.05l-8.41-68a19.44,19.44,0,1,1,38.58-4.77l8.41,68a19.43,19.43,0,0,1-16.9,21.67A19.74,19.74,0,0,1,1567.92,2489.25Z" style="fill:#ad45c6"/><path d="M2073.6,1855c-17.87-152.84-50.11-305.71-105.47-449.77,16.82,35,32.77,70.49,46.73,106.83,42.26,109.54,74.3,222.19,97.24,337.54,4.13,26.61-35,32.29-38.5,5.4Z" style="fill:#ad45c6"/><path d="M1524.49,2110.25l-7.41-189.31a64.86,64.86,0,0,1,22.61-52l56.1-48.26a26.21,26.21,0,0,0,9.14-20.36l-2.88-173.73,38.87-.65,2.88,173.73a65,65,0,0,1-22.66,50.48l-56.09,48.26a26.16,26.16,0,0,0-9.13,21l7.42,189.31Z" style="fill:#ad45c6"/><ellipse cx="1382.16" cy="1829.58" rx="77.75" ry="81.4" style="fill:#371a45"/><path d="M1382.16,1930.42c-53.59,0-97.19-45.24-97.19-100.84s43.6-100.83,97.19-100.83,97.19,45.23,97.19,100.83S1435.75,1930.42,1382.16,1930.42Zm0-162.79c-32.15,0-58.32,27.79-58.32,61.95s26.17,62,58.32,62,58.31-27.79,58.31-62S1414.31,1767.63,1382.16,1767.63Z" style="fill:#ad45c6"/><path d="M1862.63,1818.71a19.44,19.44,0,0,1-1.44-38.82L2072,1764a19.43,19.43,0,1,1,2.92,38.76l-210.76,15.85C1863.61,1818.69,1863.12,1818.71,1862.63,1818.71Z" style="fill:#ad45c6"/><path d="M2092.87,1970.51H1869.75a19.44,19.44,0,1,1,0-38.88h223.12a19.44,19.44,0,0,1,.1,38.88Z" style="fill:#ad45c6"/><path d="M1234.35,2046.64h-122.3a19.44,19.44,0,0,1,0-38.88h122.3a19.44,19.44,0,0,1,0,38.88Z" style="fill:#ad45c6"/><path d="M1088.16,1454.19c-20.16,50.59-31.53,104.22-38.2,158-5.2,41.25-6.41,83.68-5.14,125.15l-38.86-1.13c2.73-24.74,5.68-49.41,10.46-73.8,13.73-72.15,35.95-144,71.74-208.25Z" style="fill:#ad45c6"/><g style="opacity:0.25"><path d="M1867.66,2019a60.6,60.6,0,0,1-47.57,55.93c-171.2,37.61-345.7,46.16-523.12,28.57a59.92,59.92,0,0,1-53.11-49.18q-5.25-29.66-9.48-59.87c314.89,72.41,530.46-13.5,597.23-336.71a60.12,60.12,0,0,1,14.67,29.11C1858.09,1747,1875.88,1867.63,1867.66,2019Z" style="fill:#371a45"/></g><g style="opacity:0.25"><path d="M2190,3157.81c-8.6,10.11-19.24,19-29.79,26.34a143.26,143.26,0,0,1-82.12,25.51H1748.71a46.37,46.37,0,0,1-45.49-36.73c-7.39-35.38-11-89.51,20.26-131a59.79,59.79,0,0,1,2.48,6.9c21.87,74.89,209,92.92,311,27.17s7.29-400.9-16.43-575.84-107.49-201.67-107.49-201.67c45.85-70.79,73.68-156.95,89.5-247.09a40.81,40.81,0,0,0-37.77-47.63l-40.79-2.53s21.86,37.27-29.16,101.66-352.31,66.81-462.86,64.38-127.56-57.82-127.56-57.82,86.25,8,102,2.72,343.8-10.5,403.33-28.33,60-76.93,60-76.93l5.64-122h95.85a49.2,49.2,0,0,0,49.25-48.75c1.4-211.09-37.94-394.37-39.11-400,40.09,99.81,76.48,232.33,111.47,377.14l23.86,51.71c-7.82-4-15.74-8.31-23.86-12.83,0,0,21,281.84,1.6,443.81s103.7,745.1,103.7,745.1S2217.59,3125.45,2190,3157.81Z" style="fill:#371a45"/></g><g style="opacity:0.25"><path d="M1577.26,3129.14a77.8,77.8,0,0,1-77.75,80.52H1068.24a50.8,50.8,0,0,1-49.62-40.38c-8.6-40.28-11-102.29,37.13-145.78a131.34,131.34,0,0,1,6.9,25.36c21.87,128.34,157.93,93.11,245.4,92.92s116.63-175.09,99.62-391.33-68.52-386.33-68.52-386.33l65.26,5.69,155.12,25.07s3.11,37.27,8.11,96C1564.87,2679,1569.2,2896.28,1577.26,3129.14Z" style="fill:#371a45"/></g><g style="opacity:0.25"><path d="M1783.06,2995.85l-40,14.77c-.24-35.57-5.15-149.18-55.11-230.19-51.51-83.53-103-256.77-116.48-303.81l-.19-.63v0l-7.48-87.52h78.38l100.83-24.3s-75.32,75.32-19.44,269.7S1783.06,2995.85,1783.06,2995.85Z" style="fill:#371a45"/></g><g style="opacity:0.25"><path d="M2634.68,1342.47s65.6,92.72-14.58,187.48-128.78,82.61-128.78,82.61c-22.25,242.63-107.73,384-355.56,264.94,0,0-.05,0-.1-.1C2110,1857,2092.85,1843,2092.85,1843l-19.44-97.1-21.18-91.16c1.84,3.89,72.69,152.25,173.43,93.5,102.05-59.53,140.92-257.16,140.92-257.16,107.25,74.35,173.34,43.39,183.06-131.6,0,0,87.47-57.92,79.35-119.44a41.45,41.45,0,0,1-.24-8.07c27.6,7.92,43.64,36.93,36.74,65.75C2661.41,1314.92,2651.3,1329.94,2634.68,1342.47Z" style="fill:#371a45"/></g><g style="opacity:0.25"><path d="M863.84,1657.7s94,48.76,206.33-161c0,0-41.54,143.36-36.68,206.54s-54.26,33.56-54.26,33.56l-89.68-16.55" style="fill:#371a45"/></g></g></g></svg>