<svg xmlns="http://www.w3.org/2000/svg" viewBox="0 0 18 28"><g id="Calque_2" data-name="Calque 2"><g id="Calque_1-2" data-name="Calque 1"><path d="M9,0A8.92,8.92,0,0,0,2.63,2.68,9.17,9.17,0,0,0,0,9.13v1.12A22.13,22.13,0,0,0,6.66,26.11h0l1.64,1.6a1,1,0,0,0,1.4,0l1.64-1.6h0A22.13,22.13,0,0,0,18,10.25V9.12a9.16,9.16,0,0,0-2.63-6.44A8.92,8.92,0,0,0,9,0ZM9,2a6.94,6.94,0,0,1,4.94,2.08h0A7.22,7.22,0,0,1,16,9.13v1.12A20.18,20.18,0,0,1,10,24.68L9,25.6l-.95-.92A20.18,20.18,0,0,1,2,10.25V9.12a7.21,7.21,0,0,1,2.05-5h0A6.94,6.94,0,0,1,9,2Z" style="fill:#ad45c6"/><path d="M9,5a4,4,0,1,0,4,4A4,4,0,0,0,9,5ZM9,7A2,2,0,1,1,7,9,2,2,0,0,1,9,7Z" style="fill:#ad45c6"/></g></g></svg>