<svg xmlns="http://www.w3.org/2000/svg" viewBox="0 0 1041.35 891.22"><defs><linearGradient id="a" x1="-2.27" x2="1038.36" y1="412.6" y2="412.6" gradientUnits="userSpaceOnUse"><stop offset="0" stop-color="#ad45c6"/><stop offset=".22" stop-color="#b649c7"/><stop offset=".4" stop-color="#c14ec9"/><stop offset=".5" stop-color="#c24fc9"/><stop offset=".53" stop-color="#c852ca"/><stop offset=".57" stop-color="#d959cd"/><stop offset=".59" stop-color="#e35dcf"/><stop offset=".8" stop-color="#ff69d4"/><stop offset=".84" stop-color="#f866d3"/><stop offset=".89" stop-color="#e55ed0"/><stop offset=".95" stop-color="#c650ca"/><stop offset=".99" stop-color="#ae46c6"/></linearGradient><linearGradient id="b" x1="261.85" x2="1041.35" y1="679.82" y2="679.82" gradientUnits="userSpaceOnUse"><stop offset="0" stop-color="#e85fd0"/><stop offset=".05" stop-color="#d557cd"/><stop offset=".14" stop-color="#b84ac8"/><stop offset=".19" stop-color="#ad45c6"/><stop offset=".46" stop-color="#cc53cb"/><stop offset=".77" stop-color="#ea60d0"/><stop offset=".87" stop-color="#ff69d4"/><stop offset="1" stop-color="#b549c7"/></linearGradient><linearGradient id="c" x1="3.36" x2="874.49" y1="416.35" y2="416.35" gradientUnits="userSpaceOnUse"><stop offset="0" stop-color="#e85fd0"/><stop offset=".07" stop-color="#d557cd"/><stop offset=".21" stop-color="#b84ac8"/><stop offset=".28" stop-color="#ad45c6"/><stop offset=".42" stop-color="#b147c7"/><stop offset=".55" stop-color="#bc4cc8"/><stop offset=".67" stop-color="#ce54cb"/><stop offset=".78" stop-color="#e85fd0"/><stop offset=".79" stop-color="#ea60d0"/><stop offset="1" stop-color="#ff69d4"/></linearGradient><linearGradient id="d" x1="159.94" x2="741.87" y1="200.31" y2="200.31" gradientUnits="userSpaceOnUse"><stop offset="0" stop-color="#f565d2"/><stop offset=".06" stop-color="#db59ce"/><stop offset=".12" stop-color="#ca52cb"/><stop offset=".16" stop-color="#c44fca"/><stop offset=".21" stop-color="#c34fca"/><stop offset=".64" stop-color="#c14ec9"/><stop offset=".89" stop-color="#f866d3"/></linearGradient></defs><g data-name="Calque 2"><g data-name="Calque 1"><path fill="url(#a)" d="M165.18 312.08a12.58 12.58 0 0 0 7.18 6.68 4.6 4.6 0 0 0 1.73.45c26.34-.82 52.68-.24 79-.34 32.89-.13 65.78 0 98.67 0l101.05.05c12.29 0 24.58-.05 36.87-.05h89.12c28.47 0 56.93-.05 85.4 0 15.39 0 30.77.16 46.15.09 27.41-.12 54.82 0 82.23-.1 24.93-.08 49.86-.21 74.79 0a169.4 169.4 0 0 1 61.8 11.9c13 5.22 25.63 11.31 36.88 19.78q9.6 7.23 18.6 15.26c16.84 15 29.59 32.94 39.31 53.1a164.4 164.4 0 0 1 14.91 49.17c.86 6.22 1.18 12.51 1.75 18.77-2-1.71-1.28-4.32-1.79-6.4-1-4-2-8-3.32-12.05a2.76 2.76 0 0 0-.74 2.76c.71 6.29 1.77 12.53 1.64 18.91-.15 7.16-.4 14.35 0 21.49.36 5.81-1.79 11.12-2.46 16.71-.21 1.71-.24 3.83-1.25 5.51-2 3.23-4.74 5.88-5.81 9.81-.39 1.45-1.1 3.63-2.44 4.65s-2.1 2-1.89 3.63c.06.51 0 1.14-.57 1.35-2.41.82-2.17 4.41-5 4.8-.31 0-.59 1-.69 1.63a2.34 2.34 0 0 1-1 1.77c-1.84 1.14-2 4.07-4.7 4.32-.22 0-.57.55-.56.83.15 3.45-4.45 2.84-4.88 5.76-3.37-.07-3.72 3.7-6.32 5-2 1-5.18 1.45-5.88 4.5 0 .09-.33.16-.49.14-2.64-.35-3.66 3.46-6.51 2.55-.93 2-3.05 2-4.71 2.86-2.92 1.48-5.78 3-9.14 3.14a2.23 2.23 0 0 0-1.58.88c-.83.92-1.68 1.49-3 .82a1.61 1.61 0 0 0-1.95.44c-.86 1-2 .94-3.14 1-3.55.37-7.1 1-10.61 1.5a70 70 0 0 1-8.23.38c-5.93.13-11.93 0-17.85 0-6.35 0-12.73-.19-19.1.11-7.72.36-15.48.11-23.22.07-3.11 0-6.23-.25-9.34-.27-2.78 0-5.56.32-8.32.21a104 104 0 0 0-12.2-.17c-4.57.35-9.09-.11-13.63.12-7.17.37-14.4-.26-21.57-.06-8.19.22-16.37 0-24.55.14-12.37.18-24.76-.28-37.13-.16-8 .08-15.9-.46-23.87.12-5.75.42-11.61-.56-17.3-.16-6.29.43-12.52-.51-18.8.13-4.16.42-8.52-.35-12.65-.1-5.76.35-11.48-.24-17.22.11-7.39.44-14.82.11-22.23.11-5.77 0-11.54.18-17.3-.06-5.08-.21-10.2-.24-15.23-.12-6.1.14-12.19-.24-18.28 0-4.07.19-8.28-.22-12.31-.07-6.29.24-12.56-.08-18.84.08-5.59.15-11.24-.13-16.82-.11-4.68 0-9.43-.15-14.15.15-5.66.36-11.38-.32-17-.25a90.6 90.6 0 0 0-15.45 1.08c-2 .38-4.17-.14-6 .72-4.17 1.94-8.9 2-13 3.89-2.17 1-4.76 1.52-6.5 2.76-2.13 1.53-4.86 1.51-6.8 3.76s-5.72 2.1-7.66 4.8c-.19.27-.81.31-1.24.3a2.06 2.06 0 0 0-2 1.46 2.74 2.74 0 0 1-1.78 1.79c-2.59.75-3.13 4.28-6.08 4.61-.06 0-.11.13-.15.2-1.55 2.5-3 5.12-6 6.25a1.18 1.18 0 0 0-.68 1.31 2.18 2.18 0 0 1-1.6 2.18c-.73.33-1.58.67-1.54 1.62a2.38 2.38 0 0 1-2 2.64 1.68 1.68 0 0 0-1.12 1.38c-.63 4.17-4 6.94-5.48 10.78-.62 1.64-1.57 3.13-1.51 5a9.5 9.5 0 0 1-.93 3.75c-.72 1.9-2.66 3.51-2.63 5.27.11 4.69-2.57 8.62-2.86 13.22s-1.48 9.4-1.5 14.12c-.18 34-.18 67.88-.18 101.76a48 48 0 0 0 .81 8.94 81 81 0 0 1 .76 8.41c.12 1.5-.38 2-2 1.65-4.7-1.11-9.48-1.83-14.27-2.47-6.1-.81-12.22-1.29-18.37-1.71-6.64-.46-13.28-.6-19.91-.54a168 168 0 0 0-17.95.67c-5.93.69-11.91 1-17.82 1.8-6.08.82-12.08 2.21-18.1 3.41a251.3 251.3 0 0 0-43 12.62c-2.65 1.05-5.17 2.81-8.28 2.34-3.77-16.33-1.88-32.92-2.06-49.39-.3-27.33-.17-54.67 0-82 .14-28.51 7.35-55.22 20.79-80.35a174.7 174.7 0 0 1 98.76-83 163.7 163.7 0 0 1 41.39-8.38c6.49-.39 13-.66 19.53-.66q212.09.09 424.16 0c5.52 0 9.1-2.29 10.79-6.8a11.7 11.7 0 0 0 .52-4.18V494.7a12.76 12.76 0 0 0-1.29-6.15 57 57 0 0 0-.74-5.74c-1.53-6.59-4.29-12.72-7.16-18.83a68 68 0 0 0-4.43-7.58 42.5 42.5 0 0 0-3.16-4.94c-2.09-2.43-4.54-4.53-5.86-7.55a1.85 1.85 0 0 0-.77-.69c-2.75-1.64-5.45-3.32-6.74-6.49a1.47 1.47 0 0 0-1.56-.78 1.94 1.94 0 0 1-2-1.09 2.6 2.6 0 0 0-2.54-1.59c-.77 0-1.05-.45-1.25-1.11a2.5 2.5 0 0 0-2.92-2.07 1.65 1.65 0 0 1-1.59-.76c-1.32-1.9-4.53-1.39-5.27-4.1 0-.16-.65-.3-1-.25-2.75.44-4.56-1.87-7.06-2.42s-5-1.87-7.65-2.51c-2.1-.52-4.23-1-6.36-1.41-3.1-.59-6-1.81-9.32-1.34a2.53 2.53 0 0 1-1.26-.29c-2.56-1.07-5.36-.68-8-1-2-.26-4.29.69-6.65.47-4.68-.42-9.51 1.37-14.06-1.11a2.06 2.06 0 0 0-2 .36c-2.82 1.8-6 .88-9 1-3.76.1-7.58 0-11.37-.24-6.42-.37-13 1.59-19.25-1.12a1.32 1.32 0 0 0-1 .09c-2.15 1.26-4.4 1-6.79 1.11-5.42.23-10.84-.13-16.26.18-1.93.11-4 .17-6 .09-3.94-.15-7.9-.15-11.84-.1-.82 0-1.64.26-2.21-.43-1.17-1.4-2.61-1.16-3.83-.4-2.71 1.69-5.7.77-8.44.76-3.84 0-7.73.09-11.6-.15-6.32-.4-12.74 1.37-19-1.05-.81-.32-2.06.29-3 .66a6.74 6.74 0 0 1-3 .76c-2.92-.28-5.85-.08-8.76-.16-1.91-.06-3.86.57-5.69 0-2.34-.67-4.63.07-7-.19-4.57-.51-9.36 1.46-13.8-1.17a1.13 1.13 0 0 0-1 0c-2.25 1.51-4.78 1.27-7.3 1.44-1.62.11-3.14-.53-4.7-.29-3.87.61-7.78.26-11.63.16-4.23-.11-8.44.4-12.63 0-2.37-.2-5 .88-7.08-.58-1.21-.82-2.25-1.12-3.39-.39-2.74 1.77-5.87 1-8.67.9-3.87-.12-7.77-.1-11.6 0-4.05.07-8.11-.12-12.17.08-1.39.07-3.28.76-4.29-.06-2.56-2.06-4.76-.84-7.13.05a2.35 2.35 0 0 1-1.56.1c-2.21-.92-4.55-.22-6.7-.14-4 .14-7.94 0-11.9.09-4.47.12-9 .23-13.44 0-2-.11-4.3.73-5.81-.35-2-1.43-3.52-1.15-5.31-.1a4 4 0 0 1-2.55.56c-5.41-.69-10.86-.08-16.28-.16-2.26 0-4.7-.09-7-.09s-4.48.79-6.73-.1c-1-.39-2.43 1-3.28.14-2-2.07-3.94-1.17-6-.18a3.36 3.36 0 0 1-1.78.36c-3-.34-6 0-9-.12-2-.08-4 .45-6 .06-2.4-.46-4.79 0-7.19 0-4.06-.09-8.14.15-12.17-.17-1.43-.12-3.11 1.14-4.05.06-1.89-2.17-3.58-1.06-5.44-.32a6.2 6.2 0 0 1-3.07.33 58 58 0 0 0-7.23-.07 52 52 0 0 1-6.72.19c-3.88-.43-7.74.22-11.63-.19-2.9-.31-6 1-8.66-1.13a1.32 1.32 0 0 0-1-.1c-2.67.81-5.1 2-8.21 1.45a51 51 0 0 0-6.7-.13c-3.86-.1-7.73.09-11.61-.16-6.33-.41-12.79 1.49-19-1.16a1.37 1.37 0 0 0-1 .08c-4.66 2.62-9.74.9-14.6 1.25a76.5 76.5 0 0 1-11.06-.08c-4.7-.34-9.52 1.08-14.08-1.19a.9.9 0 0 0-.77 0c-2.69 1.63-5.68 1.4-8.63 1.42-2.34 0-4.69.14-7-.05-3.78-.31-7.56 0-11.35-.27-4.51-.34-9.17 1.42-13.53-1.08a1.34 1.34 0 0 0-1 0 15.84 15.84 0 0 1-7.34 1.27c-4-.25-8 .47-11.91.08s-7.91.2-11.89-.22c-4.5-.46-9.18 1.37-13.55-1.14a2 2 0 0 0-2 .22c-2.83 2.12-6.12 1.05-9.16 1.14-4.11.11-8.24 0-12.37.06-3.63.07-7.29.09-10.88-.13-1.77-.11-3.86 1-5.29-.29-1.63-1.47-3-.93-4.61-.35-.74.27-1.54.88-2.22.77-3.87-.61-7.74.26-11.64-.24a16.3 16.3 0 0 0-6.16.08c-3.92 1.11-7.56-.64-11.34-.67-1.91 0-4.89.51-6.68-1.68-.15-.17-.71-.12-1 0-3.16.85-5.66-1.31-8.5-1.91-2.08-.44-4.57-.22-5.84-2.64-.08-.15-1 .13-1.48.2a23 23 0 0 1-6.49-2.61c-1.77-2.23-5.22-1.74-6.88-4.2-.12-.16-.69 0-1 0s-1.12-.13-1.2-.36c-1-3-4.31-2.53-6.21-4.38-1.21-1.18-2.31-3.07-4-3.52-2.76-.74-4.13-3.3-5.91-4.88s-3.69-3.7-5.36-5.53c-3.41-3.75-6.1-7.87-9.08-11.87-1.37-1.82-2.12-3.89-3.41-5.67a30.36 30.36 0 0 1-5.91-13.46c-.44-3.06-2.27-5.49-2.6-8.48 0-.34-.79-.6-1.22-.9-.11-3.61-1.23-7.07-1.72-10.63-.56-4.1-1.06-8.21-1.3-12.31a185.4 185.4 0 0 1 2.33-43A173.7 173.7 0 0 1 19.75 228a169.3 169.3 0 0 1 23.16-33.77 174.9 174.9 0 0 1 50.35-40 171.7 171.7 0 0 1 59.8-18.79c18.15-2.18 36.38-1.42 54.59-1.44q132-.09 264.07 0h93.68c7.14 0 11.2-4 11.24-11.15.07-13.62.29-27.25 0-40.87-.86-36.91 25.36-70.6 62.52-79.24 18.33-4.26 36.13-3.95 53.39 3.76 9.19 4.11 17.93 9.27 24.83 16.78 5 5.4 9.8 10.91 13.36 17.55a80.3 80.3 0 0 1 7.31 17.47c1.76 6.7 3.14 13.51 3.09 20.51a6.2 6.2 0 0 0 .47 2.85c-4.61.74-4.43.75-4.65 5.44-.72 15.45 1.65 31-1.91 46.39-1 4.2-2.46 8.3-3.16 12.61-.24 1.5-.62 3.73-1.8 5-1.77 1.89-1.51 4.92-3.89 6.37-.26.16-.31.82-.3 1.24 0 2.65-1.8 4.75-3.35 6.09-2.17 1.9-2.71 4.56-4.41 6.63s-3.68 3.64-4.94 6.08c-.57 1.09-1.79 3.19-3.15 3.44-2.29.43-2.95 1.43-2.89 3.49a1.32 1.32 0 0 1-.73 1c-2.32.4-2.9 3.65-5.64 3.39a1.4 1.4 0 0 0-1.26 1.22c-.16 1.77-1.79 1.75-2.63 2.56-1.65 1.56-3.18 2.61-5.42 2.76-.25 0-.52.66-.66 1.06-.24.63-.6 1.24-1.27 1.17-3-.31-4.34 2.62-7 3.42a74 74 0 0 0-7.2 2.68 45.7 45.7 0 0 1-13.23 3.88c-1.54.15-3.13 0-4.68.62-2.57 1.09-5.43.69-8.15 1-2.09.21-4.47-.35-6.44-.1-5.54.7-11 .13-16.54.11H581c-4.56 0-9.26.05-13.86 0h-16.78c-4.68 0-9.43-.19-14.14 0-5.38.22-10.87-.09-16.26-.06-4.86 0-9.78-.09-14.68.15-6.9.33-13.83.08-20.75.08h-83.65c-6.91 0-13.84.3-20.73-.1-4.81-.27-9.65-.19-14.4-.15-5.39.06-10.84-.13-16.26.16-6.88.37-13.8.09-20.7.09h-19.38c-6.73 0-13.47.24-20.18-.07-5.34-.25-10.7-.14-16-.14-5.57 0-11.2-.45-16.79.21-2 .23-3.76-.8-5.77-.47-2.85.47-5.75.62-8.62 1-3.61.49-7.32.74-10.78 1.78-1.8.55-3.68.41-5.32 1.13-2.82 1.23-5.47 2.85-8.68 2.95a1.6 1.6 0 0 0-1.17.48c-1.63 2.4-4.88 1.79-7 3.93-1.1 1.13-3.25 3.24-5.85 2.65-.19-.05-.61.39-.72.68-1 2.55-5.05 1.67-5.48 4.86a.47.47 0 0 1-.25 0c-3.37-.26-3.86 3.29-6 4.76-1.65 1.14-4.56 2-4.44 5 0 .1-.45.32-.68.31-1.79-.08-2.57.76-2.55 2.54a1.19 1.19 0 0 1-1.21 1.19c-1.49.1-2 .95-1.9 2.31 0 .63 0 1.57-.61 1.62-3.49.31-2.46 4.34-4.93 5.9-1.27.81-3.92 3-3.19 5.91 0 .19-.58.61-.94.83a2.68 2.68 0 0 0-1.46 2.62 2 2 0 0 1-1.17 2.18 1.66 1.66 0 0 0-.93 1.76 6.1 6.1 0 0 1-1 3.46 20.7 20.7 0 0 0-2.08 5.39c-1.28 6.77-2.92 13.49-3.25 20.39-.07 1.59-.85 3.07-.45 4.71a26 26 0 0 1 .11 9.48c-.42 3.47 2.09 8.62 5.4 10.19-.52-2.28-.23-4.56-.34-6.84"/><path fill="url(#b)" d="M261.86 825.12c3.11.47 5.63-1.29 8.28-2.34a251.3 251.3 0 0 1 43-12.62c6-1.2 12-2.59 18.1-3.41 5.91-.79 11.89-1.11 17.82-1.8a168 168 0 0 1 17.95-.67c6.63-.06 13.27.08 19.91.54 6.15.42 12.27.9 18.37 1.71 4.79.64 9.57 1.36 14.27 2.47 1.64.39 2.14-.15 2-1.65a81 81 0 0 0-.76-8.41 48 48 0 0 1-.8-8.94c0-33.88 0-67.76.11-101.64 0-4.72 1.2-9.42 1.5-14.12s3-8.53 2.86-13.22c0-1.76 1.91-3.37 2.63-5.27a9.5 9.5 0 0 0 .9-3.75c-.06-1.83.89-3.32 1.51-5 1.45-3.84 4.85-6.61 5.48-10.78a1.68 1.68 0 0 1 1.12-1.38 2.38 2.38 0 0 0 2-2.64c0-1 .81-1.29 1.54-1.62a2.18 2.18 0 0 0 1.6-2.18 1.18 1.18 0 0 1 .68-1.31c3-1.13 4.41-3.75 6-6.25 0-.07.09-.2.15-.2 2.95-.33 3.49-3.86 6.08-4.61a2.74 2.74 0 0 0 1.78-1.79 2.06 2.06 0 0 1 2-1.46c.43 0 1.05 0 1.24-.3 1.94-2.7 5.8-2.64 7.66-4.8s4.67-2.23 6.8-3.76c1.74-1.24 4.33-1.75 6.5-2.76 4.13-1.93 8.86-2 13-3.89 1.84-.86 4-.34 6-.72a90.6 90.6 0 0 1 15.45-1.08c5.66-.07 11.38.61 17 .25 4.72-.3 9.47-.12 14.15-.15 5.58 0 11.23.26 16.82.11 6.28-.16 12.55.16 18.84-.08 4-.15 8.24.26 12.31.07 6.09-.28 12.18.1 18.28 0 5-.12 10.15-.09 15.23.12 5.76.24 11.53.06 17.3.06 7.41 0 14.84.33 22.23-.11 5.74-.35 11.46.24 17.22-.11 4.13-.25 8.49.52 12.65.1 6.28-.64 12.51.3 18.8-.13 5.69-.4 11.55.58 17.3.16 8-.58 15.92 0 23.87-.12 12.37-.12 24.76.34 37.13.16 8.18-.12 16.36.08 24.55-.14 7.17-.2 14.4.43 21.57.06 4.54-.23 9.06.23 13.63-.12a104 104 0 0 1 12.2.17c2.76.11 5.54-.22 8.32-.21 3.11 0 6.23.26 9.34.27 7.74 0 15.5.29 23.22-.07 6.37-.3 12.75-.08 19.1-.11 5.92 0 11.92.11 17.85 0a70 70 0 0 0 8.23-.38c3.51-.5 7.06-1.13 10.61-1.5 1.17-.11 2.28-.06 3.14-1a1.61 1.61 0 0 1 1.95-.44c1.32.67 2.17.1 3-.82a2.23 2.23 0 0 1 1.58-.88c3.36-.14 6.22-1.66 9.14-3.14 1.66-.84 3.78-.83 4.71-2.86 2.85.91 3.87-2.9 6.51-2.55.16 0 .47 0 .49-.14.7-3 3.93-3.5 5.88-4.5 2.6-1.32 2.95-5.09 6.32-5 .43-2.92 5-2.31 4.88-5.76 0-.28.34-.81.56-.83 2.68-.25 2.86-3.18 4.7-4.32a2.34 2.34 0 0 0 1-1.77c.1-.59.38-1.59.69-1.63 2.88-.39 2.64-4 5-4.8.61-.21.63-.84.57-1.35-.21-1.68.52-2.58 1.89-3.63s2-3.2 2.44-4.65c1.07-3.93 3.85-6.58 5.81-9.81 1-1.68 1-3.8 1.25-5.51.67-5.59 2.82-10.9 2.46-16.71-.45-7.14-.2-14.33 0-21.49.13-6.38-.93-12.62-1.64-18.91a2.76 2.76 0 0 1 .74-2.76c1.35 4.1 2.35 8.05 3.32 12.05.51 2.08-.16 4.69 1.79 6.4 1.08 9.34.65 18.72.48 28.07a189 189 0 0 1-3.15 28.22 164.6 164.6 0 0 1-16.14 47.9A180 180 0 0 1 998 626.21a173.6 173.6 0 0 1-39.6 33.95 171.6 171.6 0 0 1-37.79 17.62 187.2 187.2 0 0 1-34.19 7.64 142 142 0 0 1-18.42 1.14q-216 .09-432.08.05c-7.35 0-11.07 3.72-11.07 11.06v112.52c0 18.81-5.74 35.85-17.42 50.51-12.72 16-29.21 26.12-49.63 29.26-13.67 2.09-27.24 1.77-40.54-2.38a79.87 79.87 0 0 1-35.48-22.71c-9.36-10.22-15.38-22.3-18.87-35.67-.39-1.36-1.15-2.62-1.05-4.08"/><path fill="url(#c)" d="M3.36 344.06c.43.3 1.19.56 1.22.9.33 3 2.16 5.42 2.6 8.48a30.36 30.36 0 0 0 5.91 13.46c1.29 1.78 2 3.85 3.41 5.67 3 4 5.67 8.12 9.08 11.87 1.67 1.83 3.65 4 5.36 5.53s3.15 4.14 5.91 4.88c1.7.45 2.8 2.34 4 3.52 1.9 1.85 5.26 1.42 6.21 4.38.08.23.78.29 1.2.36s.91-.12 1 0c1.66 2.46 5.11 2 6.88 4.2a23 23 0 0 0 6.53 2.69c.51-.07 1.4-.35 1.48-.2 1.27 2.42 3.76 2.2 5.84 2.64 2.84.6 5.34 2.76 8.5 1.91.32-.09.88-.14 1 0 1.79 2.19 4.77 1.66 6.68 1.68 3.78 0 7.42 1.78 11.34.67a16.3 16.3 0 0 1 6.16-.08c3.9.5 7.77-.37 11.64.24.68.11 1.48-.5 2.22-.77 1.58-.58 3-1.12 4.61.35 1.43 1.29 3.52.18 5.29.29 3.59.22 7.25.2 10.88.13 4.13-.09 8.26 0 12.37-.06 3-.09 6.33 1 9.16-1.14a2 2 0 0 1 2-.22c4.37 2.51 9.05.68 13.55 1.14 4 .42 7.91-.16 11.89.22s8-.33 11.91-.08a15.84 15.84 0 0 0 7.34-1.27 1.34 1.34 0 0 1 1 0c4.36 2.5 9 .74 13.53 1.08 3.79.28 7.57 0 11.35.27 2.33.19 4.68.07 7 .05 2.95 0 5.94.21 8.63-1.42a.9.9 0 0 1 .77 0c4.56 2.27 9.38.85 14.08 1.19a76.5 76.5 0 0 0 11.11.13c4.86-.35 9.94 1.37 14.6-1.25a1.37 1.37 0 0 1 1-.08c6.22 2.65 12.68.75 19 1.16 3.88.25 7.75.06 11.61.16a51 51 0 0 1 6.7.13c3.11.52 5.54-.64 8.21-1.45a1.32 1.32 0 0 1 1 .1c2.69 2.12 5.76.82 8.66 1.13 3.89.41 7.75-.24 11.63.19a52 52 0 0 0 6.72-.19 58 58 0 0 1 7.23.07 6.2 6.2 0 0 0 3.07-.33c1.86-.74 3.55-1.85 5.44.32.94 1.08 2.62-.18 4.05-.06 4 .32 8.11.08 12.17.17 2.4.05 4.79-.44 7.19 0 2 .39 4-.14 6-.06 3 .14 6-.22 9 .12a3.36 3.36 0 0 0 1.78-.36c2-1 3.92-1.89 6 .18.85.86 2.3-.53 3.28-.14 2.25.89 4.56.09 6.73.1s4.71.06 7 .09c5.42.08 10.87-.53 16.28.16a4 4 0 0 0 2.55-.56c1.79-1.05 3.3-1.33 5.31.1 1.51 1.08 3.85.24 5.81.35 4.47.23 9 .12 13.44 0 4-.1 7.94.05 11.9-.09 2.15-.08 4.49-.78 6.7.14a2.35 2.35 0 0 0 1.56-.1c2.37-.89 4.57-2.11 7.13-.05 1 .82 2.9.13 4.29.06 4.06-.2 8.12 0 12.17-.08 3.83-.06 7.73-.08 11.6 0 2.8.09 5.93.87 8.67-.9 1.14-.73 2.18-.43 3.39.39 2.13 1.46 4.71.38 7.08.58 4.19.36 8.4-.15 12.63 0 3.85.1 7.76.45 11.63-.16 1.56-.24 3.08.4 4.7.29 2.52-.17 5.05.07 7.3-1.44a1.13 1.13 0 0 1 1 0c4.44 2.63 9.23.66 13.8 1.17 2.36.26 4.65-.48 7 .19 1.83.53 3.78-.1 5.69 0 2.91.08 5.84-.12 8.76.16a6.74 6.74 0 0 0 3-.76c1-.37 2.22-1 3-.66 6.25 2.42 12.67.65 19 1.05 3.87.24 7.76.14 11.6.15 2.74 0 5.73.93 8.44-.76 1.22-.76 2.66-1 3.83.4.57.69 1.39.44 2.21.43 3.94 0 7.9 0 11.84.1 2 .08 4 0 6-.09 5.42-.31 10.84.05 16.26-.18 2.39-.09 4.64.15 6.79-1.11a1.32 1.32 0 0 1 1-.09c6.29 2.71 12.83.75 19.25 1.12 3.79.22 7.61.34 11.37.24 2.94-.08 6.13.84 9-1a2.06 2.06 0 0 1 2-.36c4.55 2.48 9.38.69 14.06 1.11 2.36.22 4.6-.73 6.65-.47 2.65.34 5.45-.05 8 1a2.53 2.53 0 0 0 1.26.29c3.27-.47 6.22.75 9.32 1.34 2.13.4 4.26.89 6.36 1.41 2.62.64 5.11 1.95 7.65 2.51s4.31 2.86 7.06 2.42c.31-.05.91.09 1 .25.74 2.71 4 2.2 5.27 4.1a1.65 1.65 0 0 0 1.59.76 2.5 2.5 0 0 1 2.92 2.07c.2.66.48 1.15 1.25 1.11a2.6 2.6 0 0 1 2.54 1.59 1.94 1.94 0 0 0 2 1.09 1.47 1.47 0 0 1 1.56.78c1.29 3.17 4 4.85 6.74 6.49a1.85 1.85 0 0 1 .77.69c1.32 3 3.77 5.12 5.86 7.55a42.5 42.5 0 0 1 3.16 4.94 68 68 0 0 1 4.43 7.58c2.87 6.11 5.63 12.24 7.16 18.83a57 57 0 0 1 .74 5.74c-3.15-3.94-7.38-4.37-12.11-4.37q-344.08.11-688.17 0a171 171 0 0 1-49.68-7.46A175.2 175.2 0 0 1 68.31 448a170.6 170.6 0 0 1-27.71-26.82 182 182 0 0 1-20-29.35 163.6 163.6 0 0 1-10-22.68c-2.74-7.65-4.91-15.43-6.9-23.28a15 15 0 0 1-.34-1.81"/><path fill="url(#d)" d="M165.18 312.08c.11 2.28-.15 4.56.38 6.89-3.31-1.57-5.82-6.72-5.4-10.19a26 26 0 0 0-.11-9.48c-.4-1.64.38-3.12.45-4.71.33-6.9 2-13.62 3.25-20.39a20.7 20.7 0 0 1 2.08-5.39 6.1 6.1 0 0 0 1-3.46 1.66 1.66 0 0 1 .93-1.76 2 2 0 0 0 1.17-2.18 2.68 2.68 0 0 1 1.46-2.62c.36-.22 1-.64.94-.83-.73-2.94 1.92-5.1 3.19-5.91 2.47-1.56 1.44-5.59 4.93-5.9.58-.05.64-1 .61-1.62-.07-1.36.41-2.21 1.9-2.31a1.19 1.19 0 0 0 1.21-1.19c0-1.78.76-2.62 2.55-2.54.23 0 .68-.21.68-.31-.12-3 2.79-3.86 4.44-5 2.12-1.47 2.61-5 6-4.76a.47.47 0 0 0 .25 0c.43-3.19 4.47-2.31 5.48-4.86.11-.29.53-.73.72-.68 2.6.59 4.75-1.52 5.85-2.65 2.08-2.14 5.33-1.53 7-3.93a1.6 1.6 0 0 1 1.17-.48c3.21-.1 5.86-1.72 8.68-2.95 1.64-.72 3.52-.58 5.32-1.13 3.46-1 7.17-1.29 10.78-1.78 2.87-.4 5.77-.55 8.62-1 2-.33 3.82.7 5.77.47 5.59-.66 11.22-.2 16.79-.21 5.31 0 10.67-.11 16 .14 6.71.31 13.45.07 20.18.07h19.38c6.9 0 13.82.28 20.7-.09 5.42-.29 10.87-.1 16.26-.16 4.75 0 9.59-.12 14.4.15 6.89.4 13.82.1 20.73.1h83.69c6.92 0 13.85.25 20.75-.08 4.9-.24 9.82-.12 14.68-.15 5.39 0 10.88.28 16.26.06 4.71-.19 9.46 0 14.14 0h16.78c4.6 0 9.3-.09 13.86 0 5.58.07 11.21 0 16.79 0h28.52c5.49 0 11 .59 16.54-.11 2-.25 4.35.31 6.44.1 2.72-.27 5.58.13 8.15-1 1.55-.66 3.14-.47 4.68-.62a45.7 45.7 0 0 0 13.23-3.88 74 74 0 0 1 7.2-2.68c2.62-.8 4-3.73 7-3.42.67.07 1-.54 1.27-1.17.14-.4.41-1.05.66-1.06 2.24-.15 3.77-1.2 5.42-2.76.84-.81 2.47-.79 2.63-2.56a1.4 1.4 0 0 1 1.26-1.22c2.74.26 3.32-3 5.64-3.39a1.32 1.32 0 0 0 .73-1c-.06-2.06.6-3.06 2.89-3.49 1.36-.25 2.58-2.35 3.15-3.44 1.26-2.44 3.33-4.11 4.94-6.08s2.24-4.73 4.41-6.63c1.55-1.34 3.37-3.44 3.35-6.09 0-.42 0-1.08.3-1.24 2.38-1.45 2.12-4.48 3.89-6.37 1.18-1.26 1.56-3.49 1.8-5 .7-4.31 2.19-8.41 3.16-12.61 3.56-15.39 1.19-30.94 1.91-46.39.22-4.69 0-4.7 4.65-5.44 0 2.29.15 4.59.16 6.89 0 13.45.25 26.9-.06 40.34a176.4 176.4 0 0 1-6.31 41.63 168 168 0 0 1-13.24 34 173 173 0 0 1-23.08 34.06 177.4 177.4 0 0 1-38.45 33.39 175 175 0 0 1-36.11 17.52 171 171 0 0 1-35.36 8.42 146 146 0 0 1-15.26 1.28c-10.74.23-21.49 0-32.23.09s-21.57-.09-32.35-.12c-27.46-.09-54.93 0-82.39 0H177.73c-3.74 0-7.25.55-10.14 3.54-2.72 2.73-2.35 6.01-2.41 9.33"/></g></g></svg>