<?xml version="1.0" encoding="utf-8"?>
<!-- Generator: Adobe Illustrator 25.0.0, SVG Export Plug-In . SVG Version: 6.00 Build 0)  -->
<svg version="1.1" id="Calque_1" xmlns="http://www.w3.org/2000/svg" xmlns:xlink="http://www.w3.org/1999/xlink" x="0px" y="0px"
	 viewBox="0 0 904.9 900.8" style="enable-background:new 0 0 904.9 900.8;" xml:space="preserve">
<style type="text/css">
	.st0{fill:url(#SVGID_1_);}
</style>
<linearGradient id="SVGID_1_" gradientUnits="userSpaceOnUse" x1="-18.1776" y1="468.8782" x2="886.9187" y2="468.8782">
	<stop  offset="0" style="stop-color:#E85FD0"/>
	<stop  offset="4.000000e-02" style="stop-color:#D557CD"/>
	<stop  offset="0.11" style="stop-color:#B84AC8"/>
	<stop  offset="0.15" style="stop-color:#AD45C6"/>
	<stop  offset="0.32" style="stop-color:#B147C7"/>
	<stop  offset="0.48" style="stop-color:#BC4CC8"/>
	<stop  offset="0.63" style="stop-color:#CE54CB"/>
	<stop  offset="0.78" style="stop-color:#E85FD0"/>
	<stop  offset="0.79" style="stop-color:#EA60D0"/>
	<stop  offset="1" style="stop-color:#FF69D4"/>
</linearGradient>
<path class="st0" d="M886.3,510.6c-1.7-1.7-1.1-4.4-1.5-6.5c-0.9-4-1.7-8-2.9-12.2c-0.3,0.4-0.5,0.8-0.6,1.3c0.1-0.5,0.3-1,0.7-1.4
	c1.2,4.2,2,8.2,2.9,12.2C885.2,506.2,884.6,508.8,886.3,510.6c-0.5-6.4-0.8-12.8-1.5-19.1c-2-17.1-6.4-33.8-13-49.7
	c-8.4-20.4-19.5-38.5-34.2-53.7c-5.2-5.4-10.6-10.5-16.2-15.4c-9.7-8.6-20.7-14.7-32-20c-16.8-7.8-35.2-11.9-53.7-12
	c-21.7-0.2-43.3-0.1-65,0c-23.8,0.1-47.6,0-71.5,0.1c-13.4,0.1-26.7-0.1-40.1-0.1c-24.7-0.1-49.5,0-74.2,0h-77.5
	c-10.6,0-21.3,0.1-32,0.1l-87.8,0c-28.6,0-57.2-0.1-85.7,0c-22.9,0.1-45.8-0.5-68.7,0.4c-0.5,0-1-0.2-1.5-0.5
	c-2.9-1.3-5.2-3.7-6.2-6.7c-0.1,2.3,0.1,4.7,0.4,7c-0.5-0.3-1.1-0.7-1.5-1.2c0.5,0.5,1,0.9,1.5,1.2c-0.3-2.3-0.4-4.6-0.3-7
	c0.1-3.4-0.3-6.7,2.1-9.5c2.5-3,5.6-3.6,8.8-3.6H353c23.9,0,47.7-0.1,71.6,0c9.4,0,18.8,0.2,28.1,0.1c9.3-0.1,18.7,0.1,28-0.1
	c4.4-0.2,8.9-0.6,13.3-1.3c10.5-1.6,20.8-4.4,30.6-8.4c11.2-4.6,21.7-10.5,31.4-17.7c12.7-9.6,24-20.9,33.4-33.7
	c8-10.7,14.7-22.2,20.1-34.4c4.9-11,8.8-22.5,11.5-34.3c3.3-13.8,5.1-27.9,5.5-42.1c0.3-13.6,0-27.2,0-40.8c0-2.3-0.1-4.6-0.1-6.9
	c0.1,0,0.1,0,0.1,0c-0.3-0.9-0.5-1.9-0.4-2.9c-0.1-7-1-13.9-2.7-20.7c-1.5-6.1-3.6-12-6.4-17.7c-3.1-6.7-7.3-12.3-11.6-17.7
	c-6-7.6-13.6-12.9-21.6-17c-15-7.8-30.5-8.1-46.4-3.8c-32.4,8.7-55.1,42.8-54.4,80.1c0.2,13.8,0.1,27.5,0,41.3
	c0,7.2-3.6,11.3-9.8,11.3h-81.4c-76.5-0.1-153-0.1-229.5,0c-15.8,0-31.7-0.8-47.4,1.5c-18.5,2.7-36.2,9.1-52,19
	c-16.7,10.2-31.2,23.8-43.9,40.4c-8,10.6-14.7,22-20.1,34.1c-7.2,16.1-12.2,33.2-14.9,50.6c-2.1,14.4-2.8,28.9-2,43.5
	c0.2,4.1,0.6,8.3,1.1,12.4c0.4,3.6,1.4,7.1,1.5,10.8c0.1,0,0.1,0.1,0.2,0.1c0,0.5,0.1,1.1,0.2,1.6c1.7,7.9,3.6,15.8,6,23.5
	c2.4,7.8,5.3,15.5,8.7,22.9c4.9,10.4,10.8,20.3,17.6,29.6c7,9.9,15.1,19,24.1,27.1c14.2,12.8,30.8,22.7,48.9,29.1
	c13.9,5,28.5,7.5,43.2,7.5c199.3,0.1,398.7,0.1,598,0c4,0,7.6,0.4,10.3,4.2c0,0.1,0,0.2,0,0.3c0.8,2,1.2,4.1,1.1,6.2v15.8
	c0.1,1.4-0.1,2.9-0.5,4.2c-1.5,4.5-4.6,6.9-9.4,6.9c-122.9,0.1-245.7,0.1-368.6,0c-5.7,0-11.4,0.3-17,0.7c-12.3,1-24.5,3.8-36,8.4
	c-19.6,7.5-37.1,19.3-52.5,35.1c-13.8,14.2-25.1,30.7-33.3,48.8c-11.8,25.4-18,53.1-18,81.2c-0.2,27.6-0.3,55.3,0,82.9
	c0.2,16.6-1.5,33.4,1.8,49.9c2.7,0.5,4.9-1.3,7.2-2.4c12-5.5,24.5-9.8,37.4-12.8c5.2-1.2,10.6-2.6,15.7-3.5s10.3-1.1,15.5-1.8
	c5.2-0.6,10.4-0.8,15.6-0.7c5.8-0.1,11.5,0.1,17.3,0.5c5.4,0.4,10.7,0.9,16,1.7c4.2,0.6,8.3,1.4,12.4,2.5c1.4,0.4,1.9-0.1,1.8-1.7
	c-0.2-2.8-0.2-5.7-0.7-8.5c-0.5-3-0.7-6-0.7-9c0-34.2,0-68.5,0-102.7c0-4.8,1-9.6,1.3-14.3s2.6-8.6,2.5-13.4c0-1.8,1.7-3.4,2.3-5.3
	c0.5-1.2,0.8-2.5,0.8-3.8c0-1.8,0.8-3.3,1.3-5c1.3-3.9,4.2-6.7,4.8-10.9c0-0.6,0.4-1.2,1-1.4c1.2-0.3,2-1.4,1.8-2.7
	c0-1,0.7-1.3,1.3-1.7c0.9-0.3,1.5-1.2,1.4-2.2c-0.1-0.5,0.1-1.1,0.6-1.3c2.6-1.1,3.8-3.8,5.2-6.3c0-0.1,0.1-0.2,0.1-0.2
	c2.6-0.3,3-3.9,5.3-4.7c0.8-0.3,1.4-1,1.5-1.8c0.3-0.7,0.7-1.2,1.3-1.4c-0.6,0.2-1,0.7-1.3,1.4c-0.2,0.8-0.8,1.5-1.5,1.8
	c-2.3,0.8-2.7,4.3-5.3,4.7c-0.1,0-0.1,0.1-0.1,0.2c-1.3,2.5-2.6,5.2-5.2,6.3c-0.5,0.3-0.7,0.8-0.6,1.3c0.1,1-0.5,1.8-1.4,2.2
	c-0.6,0.3-1.3,0.7-1.3,1.7c0.2,1.2-0.6,2.4-1.8,2.7c-0.6,0.2-1,0.8-1,1.4c-0.5,4.2-3.5,7-4.8,10.9c-0.5,1.6-1.3,3.1-1.3,5
	c0,1.3-0.3,2.6-0.8,3.8c-0.6,1.9-2.3,3.5-2.3,5.3c0.1,4.7-2.2,8.6-2.5,13.4s-1.3,9.5-1.3,14.3C347,748.5,347,782.8,347,817
	c0,3,0.2,6,0.7,9c0.5,2.8,0.5,5.7,0.7,8.5c0.1,1.5-0.3,2.1-1.8,1.7c-4.1-1.1-8.2-1.9-12.4-2.5c-5.4-0.8-10.7-1.3-16-1.7
	c-5.8-0.5-11.5-0.6-17.3-0.5c-5.2-0.1-10.4,0.1-15.6,0.7c-5.2,0.7-10.2,1-15.5,1.8c-5.3,0.8-10.5,2.2-15.7,3.5
	c-12.9,3-25.4,7.3-37.4,12.8c-2.3,1.1-4.5,2.8-7.2,2.4c-0.1,1.5,0.6,2.7,0.9,4.1c3,13.5,8.3,25.7,16.4,36
	c8.5,10.8,18.8,18.6,30.8,23c11.5,4.2,23.4,4.5,35.2,2.4c17.8-3.2,32.1-13.4,43.1-29.6c10.1-14.8,15.1-32,15.1-51V723.6
	c0-7.4,3.2-11.2,9.6-11.2c125.2,0.1,250.3,0.1,375.5,0c5.4,0,10.7-0.4,16-1.2c10.1-1.5,20.1-4.1,29.7-7.7
	c11.7-4.4,22.7-10.4,32.9-17.8c13.2-9.6,24.8-21.2,34.4-34.3c18.3-24.7,30.3-53.6,34.7-84c1.5-9.4,2.4-18.9,2.7-28.5
	C886.9,529.6,887.2,520.1,886.3,510.6z M611.7,438.5c-0.2,0.1-0.4,0.2-0.6,0.3C611.2,438.7,611.4,438.6,611.7,438.5
	C611.6,438.5,611.6,438.5,611.7,438.5z M500.2,438.4c-0.3,0.2-0.5,0.4-0.8,0.5C499.6,438.7,499.9,438.6,500.2,438.4
	C500.1,438.4,500.2,438.4,500.2,438.4z M232.8,438.5c-0.2,0.1-0.4,0.3-0.7,0.4C232.4,438.7,232.6,438.6,232.8,438.5
	C232.8,438.5,232.8,438.5,232.8,438.5z M197.6,438.4c-0.3,0.2-0.6,0.4-0.8,0.5C197,438.7,197.3,438.6,197.6,438.4
	C197.6,438.4,197.6,438.4,197.6,438.4z M85,438.7C85,438.7,85,438.7,85,438.7C85,438.7,85,438.7,85,438.7z M83.8,439.2
	c-0.2,0.1-0.5,0.3-0.7,0.4C83.4,439.4,83.6,439.3,83.8,439.2z M120,439.2c0.3-0.2,0.6-0.4,0.8-0.6c0.1-0.1,0.3-0.2,0.5-0.3
	c-0.1,0.1-0.2,0.1-0.3,0.2C120.6,438.8,120.3,439.1,120,439.2z M346.3,439.5c0.2-0.1,0.4-0.2,0.7-0.4
	C346.7,439.2,346.6,439.3,346.3,439.5C346.3,439.4,346.3,439.4,346.3,439.5z M382.1,439.6c0.1-0.1,0.3-0.1,0.4-0.2
	c0.2-0.2,0.5-0.3,0.7-0.4c-0.2,0.1-0.4,0.2-0.5,0.3C382.5,439.4,382.3,439.5,382.1,439.6z M458.7,439.2c0.3-0.1,0.5-0.3,0.8-0.5
	c0.1-0.1,0.3-0.2,0.5-0.3c-0.1,0.1-0.2,0.1-0.3,0.2C459.3,438.9,459,439.1,458.7,439.2z M570.1,439.4c0.3-0.1,0.5-0.3,0.8-0.5
	c0.2-0.1,0.3-0.2,0.5-0.3c-0.1,0.1-0.2,0.1-0.3,0.2C570.7,439.1,570.4,439.3,570.1,439.4z M646,439.3c0.3-0.1,0.6-0.3,0.9-0.5
	c0.1-0.1,0.3-0.2,0.5-0.3c-0.1,0.1-0.2,0.1-0.3,0.2C646.7,439,646.4,439.2,646,439.3z M393.7,628.9c-1.8,1.5-4.3,1.6-5.9,3.8
	c-1.7,2.2-5,2.1-6.7,4.8c-0.2,0.3-0.7,0.3-1.1,0.3c-0.1,0-0.1,0-0.2,0c0,0,0.1,0,0.1,0c0.4,0,0.9,0,1.1-0.3c1.7-2.7,5-2.6,6.7-4.8
	S391.8,630.5,393.7,628.9c1.4-1.3,3.7-1.8,5.6-2.8c2.2-1.2,4.5-1.6,6.8-2.2c-2.3,0.6-4.6,1.1-6.7,2.3
	C397.4,627.2,395.2,627.7,393.7,628.9z M855.5,597c-2.9-0.1-3.2,3.7-5.5,5.1c-1.7,1-4.5,1.5-5.1,4.5c0,0.1-0.3,0.1-0.4,0.1
	c-2.3-0.3-3.2,3.5-5.7,2.6c-0.8,2-2.6,2-4.1,2.9c-2.5,1.5-5,3-7.9,3.2c-0.6,0.1-1.1,0.4-1.4,0.9c-0.7,0.9-1.5,1.5-2.6,0.8
	c-0.6-0.3-1.3-0.1-1.7,0.4c-0.7,1-1.7,0.9-2.7,1.1c-3.1,0.4-6.2,1-9.2,1.5c-2.4,0.3-4.8,0.4-7.1,0.4c-5.2,0.1-10.4,0-15.5,0
	c-5.5,0-11.1-0.2-16.6,0.1c-6.7,0.4-13.5,0.1-20.2,0.1c-2.7,0-5.4-0.3-8.1-0.3c-2.4,0-4.8,0.3-7.2,0.2c-3.5-0.3-7.1-0.4-10.6-0.2
	c-4,0.3-7.9-0.1-11.8,0.1c-6.2,0.4-12.5-0.3-18.8-0.1c-7.1,0.2-14.2,0-21.3,0.1c-10.8,0.2-21.5-0.3-32.3-0.2
	c-6.9,0.1-13.8-0.5-20.8,0.1c-5,0.4-10-0.6-15-0.2c-5.5,0.5-10.9-0.5-16.3,0.1c-3.6,0.4-7.4-0.3-11-0.1c-5,0.3-10-0.2-15,0.1
	c-6.4,0.5-12.9,0.1-19.3,0.1c-5,0-10,0.2-15-0.1c-4.4-0.2-8.9-0.2-13.2-0.1c-5.3,0.1-10.6-0.3-15.9,0c-3.5,0.2-7.2-0.2-10.7-0.1
	c-5.5,0.2-10.9-0.1-16.4,0.1c-4.9,0.2-9.8-0.1-14.6-0.1c-4.1,0-8.2-0.1-12.3,0.2c-4.9,0.4-9.9-0.3-14.8-0.3c-4.5-0.1-9,0.3-13.4,1.1
	c-1.8,0.4-3.6-0.1-5.2,0.7c-1.4,0.7-2.8,1.2-4.3,1.6c1.4-0.4,2.9-0.9,4.2-1.6c1.6-0.9,3.5-0.3,5.2-0.7c4.4-0.8,9-1.2,13.5-1.2
	c4.9-0.1,9.9,0.6,14.8,0.3c4.1-0.3,8.2-0.2,12.3-0.2c4.9,0,9.8,0.3,14.6,0.1c5.5-0.2,10.9,0.2,16.4-0.1c3.5-0.1,7.2,0.3,10.7,0.1
	c5.3-0.2,10.6,0.1,15.9,0c4.4-0.1,8.8-0.1,13.2,0.1c5,0.2,10,0.1,15,0.1c6.4,0,12.9,0.3,19.3-0.1c5-0.3,10,0.2,15-0.1
	c3.6-0.2,7.4,0.5,11,0.1c5.5-0.7,10.9,0.3,16.3-0.1c4.9-0.4,10,0.6,15,0.2c6.9-0.6,13.8,0,20.8-0.1c10.7-0.1,21.5,0.3,32.3,0.2
	c7.1-0.1,14.2,0.1,21.3-0.1c6.2-0.2,12.5,0.4,18.8,0.1c3.9-0.2,7.8,0.2,11.8-0.1c3.5-0.2,7.1-0.1,10.6,0.2c2.4,0.1,4.8-0.2,7.2-0.2
	c2.7,0,5.4,0.3,8.1,0.3c6.7,0,13.5,0.3,20.2-0.1c5.5-0.3,11.1-0.1,16.6-0.1c5.2,0,10.4,0.1,15.5,0c2.4,0,4.8-0.1,7.2-0.4
	c3.1-0.5,6.1-1.1,9.2-1.5c1-0.1,2-0.1,2.7-1.1c0.4-0.6,1.1-0.8,1.7-0.4c1.1,0.7,1.9,0.1,2.6-0.8c0.3-0.5,0.8-0.8,1.4-0.9
	c2.9-0.2,5.4-1.7,7.9-3.2c1.5-0.9,3.3-0.9,4.1-2.9c2.5,0.9,3.4-2.9,5.7-2.6c0.1,0,0.4,0,0.4-0.1c0.6-3.1,3.4-3.5,5.1-4.5
	C852.3,600.7,852.6,596.9,855.5,597c0.4-2.8,3.8-2.5,4.2-5.2C859.4,594.6,855.9,594.2,855.5,597z M860.2,590.4
	c-0.2,0-0.4,0.5-0.5,0.7c0,0,0,0,0,0C859.8,590.8,860.1,590.3,860.2,590.4c2.3-0.4,2.5-3.3,4.1-4.5c0.4-0.3,0.7-0.8,0.8-1.3
	c-0.1,0.5-0.4,1-0.8,1.4C862.7,587.2,862.6,590.1,860.2,590.4z M870.2,577.7c-2.1,0.8-1.9,4.4-4.4,4.8c-0.2,0-0.4,0.7-0.5,1.3
	c0.1-0.6,0.3-1.4,0.6-1.4C868.3,582.1,868.1,578.5,870.2,577.7c0.4-0.3,0.5-0.6,0.5-1C870.7,577.2,870.6,577.6,870.2,577.7z
	 M874.5,568c-0.3,1.5-1,3.7-2.1,4.7c-0.9,0.6-1.4,1.5-1.6,2.5c0.2-1,0.7-2,1.6-2.6C873.5,571.6,874.1,569.4,874.5,568
	c0.9-4,3.3-6.7,5-10c0.3-0.6,0.5-1.3,0.7-2c-0.1,0.7-0.4,1.5-0.7,2.1C877.8,561.3,875.4,564,874.5,568z"/>
</svg>
