<svg xmlns="http://www.w3.org/2000/svg" xmlns:xlink="http://www.w3.org/1999/xlink" viewBox="0 0 904.93 900.8"><defs><linearGradient id="Dégradé_sans_nom_229" x1="-1.98" y1="417.03" x2="902.34" y2="417.03" gradientUnits="userSpaceOnUse"><stop offset="0" stop-color="#e85fd0"/><stop offset="0.04" stop-color="#d557cd"/><stop offset="0.11" stop-color="#b84ac8"/><stop offset="0.15" stop-color="#ad45c6"/><stop offset="0.32" stop-color="#b147c7"/><stop offset="0.48" stop-color="#bc4cc8"/><stop offset="0.63" stop-color="#ce54cb"/><stop offset="0.78" stop-color="#e85fd0"/><stop offset="0.79" stop-color="#ea60d0"/><stop offset="1" stop-color="#ff69d4"/></linearGradient><linearGradient id="Dégradé_sans_nom_234" x1="227.55" y1="687.13" x2="904.93" y2="687.13" gradientUnits="userSpaceOnUse"><stop offset="0" stop-color="#e85fd0"/><stop offset="0.04" stop-color="#da59ce"/><stop offset="0.14" stop-color="#bd4cc9"/><stop offset="0.19" stop-color="#b247c7"/><stop offset="0.44" stop-color="#cc52cb"/><stop offset="0.77" stop-color="#ea60d0"/><stop offset="0.87" stop-color="#ff69d4"/><stop offset="1" stop-color="#b549c7"/></linearGradient><linearGradient id="Dégradé_sans_nom_229-2" x1="2.92" y1="420.82" x2="759.93" y2="420.82" xlink:href="#Dégradé_sans_nom_229"/><linearGradient id="Dégradé_sans_nom_229-3" x1="138.99" y1="202.47" x2="644.68" y2="202.47" xlink:href="#Dégradé_sans_nom_229"/></defs><g id="Calque_2" data-name="Calque 2"><g id="Calque_1-2" data-name="Calque 1"><path d="M143.54,315.44a11.78,11.78,0,0,0,6.24,6.74,3.45,3.45,0,0,0,1.5.46c22.89-.83,45.78-.24,68.67-.35,28.58-.12,57.16,0,85.74,0l87.82.05c10.68,0,21.36-.05,32-.06H503c24.74,0,49.48-.06,74.22,0,13.37.05,26.74.17,40.1.1,23.82-.12,47.64,0,71.46-.1,21.66-.08,43.33-.21,65,0a129.32,129.32,0,0,1,53.71,12c11.3,5.27,22.26,11.42,32,20q8.34,7.31,16.16,15.42c14.64,15.14,25.72,33.29,34.16,53.67a186.45,186.45,0,0,1,13,49.7c.75,6.29,1,12.65,1.52,19-1.69-1.73-1.11-4.36-1.55-6.47-.84-4-1.71-8-2.89-12.18a3.14,3.14,0,0,0-.64,2.79c.61,6.36,1.54,12.67,1.42,19.11-.13,7.24-.34,14.51.05,21.72.31,5.88-1.55,11.25-2.14,16.89-.18,1.73-.21,3.88-1.09,5.57-1.7,3.27-4.11,6-5,9.92-.34,1.47-1,3.66-2.12,4.7a3.85,3.85,0,0,0-1.65,3.67c.06.52,0,1.15-.5,1.37-2.08.83-1.88,4.45-4.38,4.85-.27,0-.51,1.05-.6,1.64a2.53,2.53,0,0,1-.88,1.8c-1.6,1.14-1.76,4.1-4.09,4.36-.19,0-.5.56-.49.84.13,3.48-3.87,2.86-4.24,5.82-2.93-.08-3.23,3.74-5.49,5.08-1.7,1-4.5,1.46-5.11,4.54,0,.09-.29.16-.43.14-2.29-.35-3.18,3.5-5.66,2.58-.8,2-2.64,2-4.09,2.89-2.54,1.5-5,3-7.94,3.17a1.89,1.89,0,0,0-1.37.89c-.72.94-1.47,1.51-2.61.84a1.25,1.25,0,0,0-1.69.44c-.75,1-1.72.94-2.73,1.06-3.09.37-6.17,1-9.23,1.51A51.08,51.08,0,0,1,820,602c-5.15.13-10.37,0-15.52,0-5.51,0-11.06-.19-16.59.11-6.71.36-13.45.12-20.18.07-2.71,0-5.41-.26-8.12-.27-2.41,0-4.83.33-7.23.21a76.8,76.8,0,0,0-10.6-.17c-4,.35-7.9-.12-11.84.12-6.23.37-12.52-.26-18.75-.06-7.11.22-14.22,0-21.33.14-10.76.18-21.52-.28-32.26-.16-6.92.08-13.83-.46-20.75.12-5,.42-10.09-.57-15-.17-5.46.45-10.87-.51-16.33.14-3.62.43-7.41-.35-11-.1-5,.35-10-.24-15,.11-6.42.45-12.88.11-19.32.11-5,0-10,.18-15-.06-4.42-.21-8.87-.24-13.24-.12-5.29.14-10.59-.24-15.88,0-3.54.19-7.19-.22-10.7-.07-5.46.24-10.91-.08-16.37.08-4.85.15-9.77-.13-14.62-.11-4.07,0-8.19-.15-12.29.15-4.92.36-9.89-.33-14.81-.26A68.66,68.66,0,0,0,433.8,603c-1.77.38-3.62-.14-5.22.72-3.62,2-7.73,2-11.32,3.94-1.89,1-4.14,1.54-5.65,2.79-1.85,1.54-4.22,1.52-5.91,3.8s-5,2.12-6.65,4.85c-.17.27-.71.31-1.08.31-.92,0-1.39.59-1.73,1.46a2.64,2.64,0,0,1-1.55,1.82c-2.25.75-2.72,4.32-5.28,4.65-.05,0-.1.13-.14.21-1.34,2.52-2.56,5.18-5.17,6.31a1.28,1.28,0,0,0-.6,1.34,2.17,2.17,0,0,1-1.39,2.19c-.63.34-1.37.68-1.34,1.65A2.35,2.35,0,0,1,379,641.7a1.67,1.67,0,0,0-1,1.4c-.54,4.21-3.5,7-4.76,10.89-.54,1.65-1.36,3.16-1.32,5a10.71,10.71,0,0,1-.8,3.79c-.62,1.92-2.32,3.54-2.28,5.32.09,4.74-2.24,8.71-2.49,13.37s-1.29,9.49-1.3,14.27C365,730,365,764.25,365,798.49a56.86,56.86,0,0,0,.7,9c.45,2.78.47,5.66.66,8.5.11,1.52-.33,2.07-1.76,1.67a109.55,109.55,0,0,0-12.39-2.49c-5.31-.83-10.62-1.31-16-1.73-5.78-.47-11.55-.61-17.31-.55a125.28,125.28,0,0,0-15.6.68c-5.15.69-10.34,1-15.48,1.82s-10.5,2.23-15.73,3.45a195.69,195.69,0,0,0-37.36,12.75c-2.3,1.06-4.49,2.84-7.2,2.36-3.27-16.5-1.62-33.27-1.78-49.91-.26-27.63-.15-55.26,0-82.89A194.23,194.23,0,0,1,243.8,620a172.59,172.59,0,0,1,33.29-48.78c15.42-15.83,32.92-27.63,52.54-35.14a125.24,125.24,0,0,1,36-8.4c5.64-.4,11.3-.67,17-.67q184.3.1,368.6,0c4.79,0,7.9-2.32,9.37-6.87a13.47,13.47,0,0,0,.45-4.23c0-5.27,0-10.55,0-15.82a14.64,14.64,0,0,0-1.12-6.22c-.21-1.94-.27-3.91-.65-5.8-1.32-6.67-3.72-12.86-6.22-19a71.88,71.88,0,0,0-3.84-7.65,45.74,45.74,0,0,0-2.75-5c-1.81-2.45-4-4.57-5.1-7.63a1.71,1.71,0,0,0-.66-.7c-2.39-1.66-4.74-3.35-5.86-6.56a1.23,1.23,0,0,0-1.36-.78,1.68,1.68,0,0,1-1.69-1.11,2.25,2.25,0,0,0-2.21-1.6c-.66,0-.91-.46-1.08-1.13-.37-1.45-1.13-2.28-2.54-2.09a1.37,1.37,0,0,1-1.38-.77c-1.15-1.92-3.94-1.41-4.58-4.14,0-.17-.57-.31-.84-.25-2.39.44-4-1.89-6.13-2.45s-4.38-1.89-6.65-2.54c-1.83-.53-3.68-1-5.52-1.43-2.7-.59-5.27-1.82-8.11-1.34a2,2,0,0,1-1.09-.3c-2.23-1.08-4.66-.69-7-1-1.78-.27-3.73.7-5.78.48-4.06-.43-8.26,1.38-12.22-1.13-.56-.36-1.25,0-1.75.37-2.45,1.82-5.23.89-7.78,1-3.27.1-6.59,0-9.88-.24-5.58-.38-11.26,1.6-16.73-1.14a1,1,0,0,0-.9.1c-1.86,1.27-3.82,1-5.9,1.12-4.71.23-9.42-.14-14.13.18a46.87,46.87,0,0,1-5.18.09c-3.43-.16-6.86-.16-10.3-.1-.7,0-1.41.26-1.91-.43-1-1.42-2.27-1.18-3.33-.42-2.35,1.72-5,.78-7.33.77-3.35,0-6.72.1-10.09-.15-5.49-.4-11.06,1.39-16.5-1.06-.7-.32-1.79.3-2.63.67a5.16,5.16,0,0,1-2.65.77c-2.53-.29-5.08-.09-7.6-.17-1.66-.05-3.36.58-5,0-2-.68-4,.07-6.07-.2-4-.51-8.14,1.48-12-1.18a.88.88,0,0,0-.89,0c-2,1.53-4.15,1.29-6.35,1.46-1.41.11-2.72-.54-4.07-.29-3.37.61-6.77.26-10.11.16-3.68-.11-7.34.41-11,0-2.06-.21-4.3.89-6.16-.59-1-.83-2-1.13-2.93-.4-2.39,1.79-5.11,1-7.55.92-3.36-.13-6.75-.1-10.08,0-3.51.06-7.05-.13-10.57.08-1.21.07-2.85.76-3.73-.06-2.22-2.09-4.14-.85-6.2.05a1.73,1.73,0,0,1-1.35.09c-1.92-.93-4-.21-5.82-.14-3.44.15-6.9,0-10.34.1-3.89.12-7.8.23-11.68,0-1.71-.1-3.74.74-5.05-.34-1.75-1.45-3.06-1.17-4.62-.1a3.05,3.05,0,0,1-2.21.56c-4.71-.7-9.44-.09-14.15-.16-2,0-4.08-.09-6.06-.1s-3.89.81-5.84-.1c-.85-.39-2.11,1-2.85.15-1.79-2.09-3.42-1.18-5.19-.18a2.69,2.69,0,0,1-1.55.36c-2.62-.35-5.24,0-7.83-.12-1.75-.09-3.47.45-5.19.06-2.08-.47-4.16,0-6.24,0-3.53-.09-7.08.15-10.58-.18-1.24-.11-2.7,1.16-3.52.06-1.64-2.19-3.11-1.06-4.73-.32a4.7,4.7,0,0,1-2.66.34,42.44,42.44,0,0,0-6.28-.07,41,41,0,0,1-5.85.19c-3.37-.43-6.72.22-10.11-.2-2.51-.31-5.18,1-7.52-1.14a1,1,0,0,0-.89-.1c-2.31.82-4.43,2-7.13,1.47a40,40,0,0,0-5.82-.14c-3.36-.09-6.72.1-10.09-.15-5.5-.42-11.12,1.5-16.52-1.17a1,1,0,0,0-.89.07c-4,2.65-8.47.92-12.69,1.27a57.84,57.84,0,0,1-9.66-.14c-4.08-.34-8.27,1.09-12.23-1.2a.72.72,0,0,0-.67,0c-2.34,1.65-4.94,1.42-7.5,1.44a59.08,59.08,0,0,1-6.1-.06c-3.29-.31-6.57,0-9.87-.26-3.91-.35-8,1.43-11.75-1.09a1,1,0,0,0-.9,0,12.22,12.22,0,0,1-6.38,1.29c-3.44-.26-6.94.47-10.36.08s-6.87.2-10.33-.22c-3.9-.47-8,1.38-11.77-1.16a1.53,1.53,0,0,0-1.78.22c-2.46,2.15-5.33,1.07-8,1.15-3.58.12-7.17,0-10.76.07-3.15.07-6.33.09-9.45-.13-1.53-.11-3.36,1-4.59-.29-1.42-1.5-2.64-1-4-.36-.65.28-1.34.89-1.93.78-3.36-.61-6.73.26-10.12-.24a12.21,12.21,0,0,0-5.35.07c-3.41,1.13-6.56-.64-9.85-.67-1.66,0-4.25.51-5.81-1.7-.13-.18-.61-.12-.89,0-2.75.86-4.92-1.32-7.39-1.93-1.8-.44-4-.22-5.08-2.66-.07-.16-.83.13-1.28.19-.64.09-5.25-2.07-5.64-2.63-1.54-2.26-4.53-1.76-6-4.24-.1-.17-.59,0-.89-.05s-1-.13-1-.36c-.83-3-3.76-2.56-5.4-4.43-1.06-1.19-2-3.1-3.49-3.56-2.39-.74-3.59-3.34-5.13-4.93s-3.21-3.74-4.66-5.59c-3-3.79-5.3-8-7.89-12-1.19-1.85-1.84-3.94-3-5.74a33.37,33.37,0,0,1-5.13-13.6c-.38-3.1-2-5.56-2.26-8.57,0-.35-.69-.61-1.06-.91-.1-3.66-1.07-7.15-1.49-10.75-.49-4.14-.92-8.3-1.13-12.44a217,217,0,0,1,2-43.45,195.39,195.39,0,0,1,14.85-50.64,174.34,174.34,0,0,1,20.12-34.14C49.77,179.81,64.28,166.21,81,156a134.61,134.61,0,0,1,52-19c15.77-2.21,31.62-1.44,47.43-1.46q114.75-.09,229.48,0,40.71,0,81.41,0c6.2,0,9.73-4.05,9.77-11.27.06-13.77.25-27.54,0-41.31-.73-37.33,22-71.38,54.35-80.12,15.93-4.31,31.4-4,46.39,3.8,8,4.15,15.58,9.37,21.59,17,4.31,5.46,8.51,11,11.6,17.74a89.18,89.18,0,0,1,6.36,17.66,92.06,92.06,0,0,1,2.68,20.72,7.25,7.25,0,0,0,.41,2.89c-4,.74-3.85.75-4,5.5-.63,15.61,1.43,31.32-1.66,46.88-.84,4.25-2.14,8.39-2.75,12.75-.21,1.52-.54,3.77-1.56,5-1.54,1.91-1.31,5-3.39,6.44-.22.16-.26.83-.26,1.25a8.92,8.92,0,0,1-2.9,6.16c-1.89,1.92-2.36,4.61-3.84,6.71s-3.2,3.67-4.29,6.13c-.49,1.11-1.56,3.23-2.74,3.49-2,.43-2.56,1.44-2.51,3.52,0,.35-.37,1-.63,1-2,.41-2.52,3.69-4.9,3.43-.49-.05-1.06.63-1.1,1.23-.14,1.79-1.55,1.77-2.29,2.59-1.43,1.58-2.76,2.64-4.71,2.78-.21,0-.44.68-.57,1.08-.2.64-.52,1.25-1.1,1.18-2.59-.31-3.78,2.65-6.05,3.46a59.2,59.2,0,0,0-6.26,2.71,36,36,0,0,1-11.49,3.92c-1.34.16-2.72,0-4.07.62-2.24,1.11-4.72.71-7.08,1-1.82.21-3.89-.36-5.6-.11-4.81.71-9.61.14-14.37.11-4.07,0-8.22,0-12.28,0s-8.36,0-12.51,0c-4.85,0-9.74,0-14.58,0-4,0-8.06.05-12.05,0-4.85,0-9.75,0-14.59,0-4.06,0-8.19-.19-12.28,0-4.68.22-9.45-.1-14.13-.06-4.23,0-8.5-.09-12.76.15-6,.33-12,.08-18,.08H348.37c-6,0-12,.3-18-.1-4.18-.27-8.39-.2-12.51-.15-4.69.06-9.42-.13-14.13.16-6,.37-12,.09-18,.09H268.87c-5.84,0-11.7.24-17.53-.07-4.64-.25-9.3-.15-13.91-.14-4.84,0-9.74-.45-14.59.21-1.69.23-3.27-.81-5-.48-2.47.48-5,.64-7.49,1-3.14.5-6.36.75-9.37,1.81-1.56.55-3.19.41-4.62,1.14-2.45,1.24-4.76,2.88-7.54,3a1.33,1.33,0,0,0-1,.48c-1.42,2.43-4.24,1.82-6.05,4-1,1.14-2.82,3.27-5.08,2.67-.16,0-.53.4-.63.69-.87,2.58-4.38,1.69-4.76,4.91,0,0-.14,0-.21,0-2.94-.27-3.36,3.32-5.2,4.81-1.44,1.15-4,2-3.86,5.05,0,.1-.39.32-.59.31-1.56-.08-2.24.77-2.21,2.57a1.14,1.14,0,0,1-1.06,1.21c-1.29.1-1.71,1-1.65,2.33,0,.63,0,1.59-.53,1.64-3,.31-2.14,4.38-4.28,6-1.11.82-3.41,3-2.78,6,0,.19-.5.61-.81.84a2.82,2.82,0,0,0-1.27,2.65,2.15,2.15,0,0,1-1,2.2,1.76,1.76,0,0,0-.81,1.78,6.87,6.87,0,0,1-.87,3.5,22.52,22.52,0,0,0-1.81,5.45c-1.12,6.84-2.54,13.63-2.82,20.61-.07,1.6-.74,3.09-.39,4.75a30.79,30.79,0,0,1,.09,9.58c-.37,3.52,1.81,8.72,4.69,10.3A45.3,45.3,0,0,1,143.54,315.44Z" fill="url(#Dégradé_sans_nom_229)"/><path d="M227.55,834c2.71.48,4.9-1.3,7.2-2.36a195.69,195.69,0,0,1,37.36-12.75c5.23-1.22,10.44-2.62,15.73-3.45s10.33-1.13,15.48-1.82a125.28,125.28,0,0,1,15.6-.68c5.76-.06,11.53.08,17.31.55,5.34.42,10.65.9,16,1.73a109.55,109.55,0,0,1,12.39,2.49c1.43.4,1.87-.15,1.76-1.67-.19-2.84-.21-5.72-.66-8.5a56.86,56.86,0,0,1-.7-9c0-34.24,0-68.49.1-102.73,0-4.78,1-9.52,1.3-14.27s2.58-8.63,2.49-13.37c0-1.78,1.66-3.4,2.28-5.32A10.71,10.71,0,0,0,372,659c0-1.86.78-3.37,1.32-5,1.26-3.88,4.22-6.68,4.76-10.89a1.67,1.67,0,0,1,1-1.4,2.35,2.35,0,0,0,1.76-2.66c0-1,.71-1.31,1.34-1.65a2.17,2.17,0,0,0,1.39-2.19,1.28,1.28,0,0,1,.6-1.34c2.61-1.13,3.83-3.79,5.17-6.31,0-.08.09-.2.14-.21,2.56-.33,3-3.9,5.28-4.65a2.64,2.64,0,0,0,1.55-1.82c.34-.87.81-1.48,1.73-1.46.37,0,.91,0,1.08-.31,1.68-2.73,5-2.66,6.65-4.85s4.06-2.26,5.91-3.8c1.51-1.25,3.76-1.77,5.65-2.79,3.59-1.95,7.7-2,11.32-3.94,1.6-.86,3.45-.34,5.22-.72a68.66,68.66,0,0,1,13.43-1.1c4.92-.07,9.89.62,14.81.26,4.1-.3,8.22-.12,12.29-.15,4.85,0,9.77.26,14.62.11,5.46-.16,10.91.16,16.37-.08,3.51-.15,7.16.26,10.7.07,5.29-.28,10.59.1,15.88,0,4.37-.12,8.82-.09,13.24.12,5,.24,10,.06,15,.06,6.44,0,12.9.34,19.32-.11,5-.35,10,.24,15-.11,3.59-.25,7.38.53,11,.1,5.46-.65,10.87.31,16.33-.14,5-.4,10,.59,15,.17,6.92-.58,13.83,0,20.75-.12,10.74-.12,21.5.34,32.26.16,7.11-.13,14.22.08,21.33-.14,6.23-.2,12.52.43,18.75.06,3.94-.24,7.87.23,11.84-.12a76.8,76.8,0,0,1,10.6.17c2.4.12,4.82-.22,7.23-.21,2.71,0,5.41.26,8.12.27,6.73,0,13.47.29,20.18-.07,5.53-.3,11.08-.08,16.59-.11,5.15,0,10.37.11,15.52,0a51.08,51.08,0,0,0,7.14-.39c3.06-.5,6.14-1.14,9.23-1.51,1-.12,2-.06,2.73-1.06a1.25,1.25,0,0,1,1.69-.44c1.14.67,1.89.1,2.61-.84a1.89,1.89,0,0,1,1.37-.89c2.92-.14,5.4-1.67,7.94-3.17,1.45-.85,3.29-.84,4.09-2.89,2.48.92,3.37-2.93,5.66-2.58.14,0,.41,0,.43-.14.61-3.08,3.41-3.54,5.11-4.54,2.26-1.34,2.56-5.16,5.49-5.08.37-3,4.37-2.34,4.24-5.82,0-.28.3-.82.49-.84,2.33-.26,2.49-3.22,4.09-4.36a2.53,2.53,0,0,0,.88-1.8c.09-.59.33-1.6.6-1.64,2.5-.4,2.3-4,4.38-4.85.54-.22.56-.85.5-1.37a3.85,3.85,0,0,1,1.65-3.67c1.16-1,1.78-3.23,2.12-4.7.93-4,3.34-6.65,5-9.92.88-1.69.91-3.84,1.09-5.57.59-5.64,2.45-11,2.14-16.89-.39-7.21-.18-14.48-.05-21.72.12-6.44-.81-12.75-1.42-19.11a3.14,3.14,0,0,1,.64-2.79c1.18,4.14,2,8.14,2.89,12.18.44,2.11-.14,4.74,1.55,6.47.94,9.44.56,18.92.42,28.37A219.54,219.54,0,0,1,902,549a186.61,186.61,0,0,1-34.73,84,159.65,159.65,0,0,1-34.41,34.31A140.91,140.91,0,0,1,800,685.07a144.13,144.13,0,0,1-29.7,7.71,107.67,107.67,0,0,1-16,1.16q-187.74.09-375.48,0c-6.39,0-9.62,3.75-9.62,11.17q0,56.87,0,113.74c0,19-5,36.23-15.14,51.05-11,16.13-25.38,26.4-43.13,29.57-11.87,2.12-23.67,1.79-35.22-2.41-12.05-4.39-22.34-12.15-30.84-23-8.13-10.32-13.36-22.54-16.39-36C228.13,836.74,227.47,835.46,227.55,834Z" fill="url(#Dégradé_sans_nom_234)"/><path d="M2.92,347.76c.37.3,1,.56,1.06.91.28,3,1.88,5.47,2.26,8.57a33.37,33.37,0,0,0,5.13,13.6c1.13,1.8,1.78,3.89,3,5.74,2.59,4,4.93,8.2,7.89,12,1.45,1.85,3.17,4.06,4.66,5.59s2.74,4.19,5.13,4.93c1.48.46,2.43,2.37,3.49,3.56,1.64,1.87,4.57,1.43,5.4,4.43.06.23.67.29,1,.36s.79-.12.89.05c1.45,2.48,4.44,2,6,4.24.39.56,5,2.72,5.64,2.63.45-.06,1.21-.35,1.28-.19,1.11,2.44,3.28,2.22,5.08,2.66,2.47.61,4.64,2.79,7.39,1.93.28-.09.76-.15.89,0,1.56,2.21,4.15,1.68,5.81,1.7,3.29,0,6.44,1.8,9.85.67a12.21,12.21,0,0,1,5.35-.07c3.39.5,6.76-.37,10.12.24.59.11,1.28-.5,1.93-.78,1.37-.59,2.59-1.14,4,.36,1.23,1.3,3.06.18,4.59.29,3.12.22,6.3.2,9.45.13,3.59-.09,7.18.05,10.76-.07,2.63-.08,5.5,1,8-1.15a1.53,1.53,0,0,1,1.78-.22c3.8,2.54,7.87.69,11.77,1.16,3.46.42,6.88-.17,10.33.22s6.92-.34,10.36-.08a12.22,12.22,0,0,0,6.38-1.29,1,1,0,0,1,.9,0c3.78,2.52,7.84.74,11.75,1.09,3.3.28,6.58-.05,9.87.26a59.08,59.08,0,0,0,6.1.06c2.56,0,5.16.21,7.5-1.44a.72.72,0,0,1,.67,0c4,2.29,8.15.86,12.23,1.2a57.84,57.84,0,0,0,9.66.14c4.22-.35,8.64,1.38,12.69-1.27a1,1,0,0,1,.89-.07c5.4,2.67,11,.75,16.52,1.17,3.37.25,6.73.06,10.09.15a40,40,0,0,1,5.82.14c2.7.53,4.82-.65,7.13-1.47a1,1,0,0,1,.89.1c2.34,2.15,5,.83,7.52,1.14,3.39.42,6.74-.23,10.11.2a41,41,0,0,0,5.85-.19,42.44,42.44,0,0,1,6.28.07,4.7,4.7,0,0,0,2.66-.34c1.62-.74,3.09-1.87,4.73.32.82,1.1,2.28-.17,3.52-.06,3.5.33,7.05.09,10.58.18,2.08.05,4.16-.45,6.24,0,1.72.39,3.44-.15,5.19-.06,2.59.14,5.21-.23,7.83.12a2.69,2.69,0,0,0,1.55-.36c1.77-1,3.4-1.91,5.19.18.74.86,2-.54,2.85-.15,1.95.91,4,.1,5.84.1s4.09.06,6.06.1c4.71.07,9.44-.54,14.15.16a3.05,3.05,0,0,0,2.21-.56c1.56-1.07,2.87-1.35,4.62.1,1.31,1.08,3.34.24,5.05.34,3.88.24,7.79.13,11.68,0,3.44-.1,6.9.05,10.34-.1,1.86-.07,3.9-.79,5.82.14a1.73,1.73,0,0,0,1.35-.09c2.06-.9,4-2.14,6.2-.05.88.82,2.52.13,3.73.06,3.52-.21,7.06,0,10.57-.08,3.33-.06,6.72-.09,10.08,0,2.44.08,5.16.87,7.55-.92,1-.73,1.89-.43,2.93.4,1.86,1.48,4.1.38,6.16.59,3.64.37,7.3-.15,11,0,3.34.1,6.74.45,10.11-.16,1.35-.25,2.66.4,4.07.29,2.2-.17,4.39.07,6.35-1.46a.88.88,0,0,1,.89,0c3.86,2.66,8,.67,12,1.18,2,.27,4-.48,6.07.2,1.59.53,3.29-.1,5,0,2.52.08,5.07-.12,7.6.17a5.16,5.16,0,0,0,2.65-.77c.84-.37,1.93-1,2.63-.67,5.44,2.45,11,.66,16.5,1.06,3.37.25,6.74.14,10.09.15,2.37,0,5,.95,7.33-.77,1.06-.76,2.31-1,3.33.42.5.69,1.21.44,1.91.43,3.44-.06,6.87-.06,10.3.1a46.87,46.87,0,0,0,5.18-.09c4.71-.32,9.42.05,14.13-.18,2.08-.1,4,.15,5.9-1.12a1,1,0,0,1,.9-.1c5.47,2.74,11.15.76,16.73,1.14,3.29.22,6.61.34,9.88.24,2.55-.08,5.33.85,7.78-1,.5-.38,1.19-.73,1.75-.37,4,2.51,8.16.7,12.22,1.13,2.05.22,4-.75,5.78-.48,2.3.34,4.73-.05,7,1a2,2,0,0,0,1.09.3c2.84-.48,5.41.75,8.11,1.34,1.84.41,3.69.9,5.52,1.43,2.27.65,4.44,2,6.65,2.54s3.74,2.89,6.13,2.45c.27-.06.8.08.84.25.64,2.73,3.43,2.22,4.58,4.14a1.37,1.37,0,0,0,1.38.77c1.41-.19,2.17.64,2.54,2.09.17.67.42,1.16,1.08,1.13a2.25,2.25,0,0,1,2.21,1.6,1.68,1.68,0,0,0,1.69,1.11,1.23,1.23,0,0,1,1.36.78c1.12,3.21,3.47,4.9,5.86,6.56a1.71,1.71,0,0,1,.66.7c1.15,3.06,3.29,5.18,5.1,7.63a45.74,45.74,0,0,1,2.75,5,71.88,71.88,0,0,1,3.84,7.65c2.5,6.18,4.9,12.37,6.22,19,.38,1.89.44,3.86.65,5.8-2.73-4-6.42-4.42-10.53-4.42q-299,.12-598,0a129.21,129.21,0,0,1-43.17-7.54,145.6,145.6,0,0,1-48.86-29.1,161.92,161.92,0,0,1-24.08-27.1A188.39,188.39,0,0,1,17.87,396a179.09,179.09,0,0,1-8.73-22.92c-2.39-7.74-4.28-15.6-6-23.53A18.29,18.29,0,0,1,2.92,347.76Z" fill="url(#Dégradé_sans_nom_229-2)"/><path d="M143.54,315.44a45.3,45.3,0,0,0,.33,6.95c-2.88-1.58-5.06-6.78-4.69-10.3a30.79,30.79,0,0,0-.09-9.58c-.35-1.66.32-3.15.39-4.75.28-7,1.7-13.77,2.82-20.61a22.52,22.52,0,0,1,1.81-5.45,6.87,6.87,0,0,0,.87-3.5,1.76,1.76,0,0,1,.81-1.78,2.15,2.15,0,0,0,1-2.2,2.82,2.82,0,0,1,1.27-2.65c.31-.23.85-.65.81-.84-.63-3,1.67-5.15,2.78-6,2.14-1.58,1.25-5.65,4.28-6,.51-.05.56-1,.53-1.64-.06-1.37.36-2.23,1.65-2.33a1.14,1.14,0,0,0,1.06-1.21c0-1.8.65-2.65,2.21-2.57.2,0,.59-.21.59-.31-.11-3.07,2.42-3.9,3.86-5.05,1.84-1.49,2.26-5.08,5.2-4.81.07,0,.21,0,.21,0,.38-3.22,3.89-2.33,4.76-4.91.1-.29.47-.73.63-.69,2.26.6,4.12-1.53,5.08-2.67,1.81-2.16,4.63-1.55,6.05-4a1.33,1.33,0,0,1,1-.48c2.78-.1,5.09-1.74,7.54-3,1.43-.73,3.06-.59,4.62-1.14,3-1.06,6.23-1.31,9.37-1.81,2.5-.39,5-.55,7.49-1,1.75-.33,3.33.71,5,.48,4.85-.66,9.75-.2,14.59-.21,4.61,0,9.27-.11,13.91.14,5.83.31,11.69.07,17.53.07h16.85c6,0,12,.28,18-.09,4.71-.29,9.44-.1,14.13-.16,4.12-.05,8.33-.12,12.51.15,6,.4,12,.1,18,.1h72.72c6,0,12,.25,18-.08,4.26-.24,8.53-.13,12.76-.15,4.68,0,9.45.28,14.13.06,4.09-.2,8.22,0,12.28,0,4.84,0,9.74,0,14.59,0,4,0,8.08-.08,12.05,0,4.84.06,9.73,0,14.58,0,4.15,0,8.38,0,12.51,0s8.21,0,12.28,0c4.76,0,9.56.6,14.37-.11,1.71-.25,3.78.32,5.6.11,2.36-.27,4.84.13,7.08-1,1.35-.66,2.73-.46,4.07-.62a36,36,0,0,0,11.49-3.92,59.2,59.2,0,0,1,6.26-2.71c2.27-.81,3.46-3.77,6.05-3.46.58.07.9-.54,1.1-1.18.13-.4.36-1.06.57-1.08,2-.14,3.28-1.2,4.71-2.78.74-.82,2.15-.8,2.29-2.59,0-.6.61-1.28,1.1-1.23,2.38.26,2.88-3,4.9-3.43.26-.05.64-.68.63-1,0-2.08.52-3.09,2.51-3.52,1.18-.26,2.25-2.38,2.74-3.49,1.09-2.46,2.9-4.15,4.29-6.13s2-4.79,3.84-6.71a8.92,8.92,0,0,0,2.9-6.16c0-.42,0-1.09.26-1.25,2.08-1.47,1.85-4.53,3.39-6.44,1-1.27,1.35-3.52,1.56-5,.61-4.36,1.91-8.5,2.75-12.75,3.09-15.56,1-31.27,1.66-46.88.19-4.75,0-4.76,4-5.5,0,2.32.13,4.64.13,7,0,13.59.22,27.19-.05,40.77a204.19,204.19,0,0,1-5.48,42.08,188.39,188.39,0,0,1-11.5,34.33,179.15,179.15,0,0,1-20.07,34.44,163.43,163.43,0,0,1-33.4,33.74,144.35,144.35,0,0,1-31.38,17.71A131.91,131.91,0,0,1,512,301.08a108.81,108.81,0,0,1-13.26,1.29c-9.34.24-18.68,0-28,.09s-18.74-.09-28.11-.12c-23.87-.08-47.73,0-71.6,0H256q-50.79,0-101.59,0c-3.25,0-6.3.56-8.82,3.59C143.27,308.76,143.59,312.08,143.54,315.44Z" fill="url(#Dégradé_sans_nom_229-3)"/></g></g></svg>